<svg xmlns="http://www.w3.org/2000/svg" width="1200" height="675" viewBox="0 0 1200 675">
  <rect width="1200" height="675" fill="#f7f3ea"/>
  <g stroke="#e2dac8" stroke-width="1"><line x1="60" y1="0" x2="60" y2="675"/><line x1="120" y1="0" x2="120" y2="675"/><line x1="180" y1="0" x2="180" y2="675"/><line x1="240" y1="0" x2="240" y2="675"/><line x1="300" y1="0" x2="300" y2="675"/><line x1="360" y1="0" x2="360" y2="675"/><line x1="420" y1="0" x2="420" y2="675"/><line x1="480" y1="0" x2="480" y2="675"/><line x1="540" y1="0" x2="540" y2="675"/><line x1="600" y1="0" x2="600" y2="675"/><line x1="660" y1="0" x2="660" y2="675"/><line x1="720" y1="0" x2="720" y2="675"/><line x1="780" y1="0" x2="780" y2="675"/><line x1="840" y1="0" x2="840" y2="675"/><line x1="900" y1="0" x2="900" y2="675"/><line x1="960" y1="0" x2="960" y2="675"/><line x1="1020" y1="0" x2="1020" y2="675"/><line x1="1080" y1="0" x2="1080" y2="675"/><line x1="1140" y1="0" x2="1140" y2="675"/><line x1="0" y1="15" x2="1200" y2="15"/><line x1="0" y1="75" x2="1200" y2="75"/><line x1="0" y1="135" x2="1200" y2="135"/><line x1="0" y1="195" x2="1200" y2="195"/><line x1="0" y1="255" x2="1200" y2="255"/><line x1="0" y1="315" x2="1200" y2="315"/><line x1="0" y1="375" x2="1200" y2="375"/><line x1="0" y1="435" x2="1200" y2="435"/><line x1="0" y1="495" x2="1200" y2="495"/><line x1="0" y1="555" x2="1200" y2="555"/><line x1="0" y1="615" x2="1200" y2="615"/></g>
  <g stroke="#29221b" stroke-opacity="0.65" stroke-width="2">
    <path d="M26 42 V26 H42" fill="none"/>
    <path d="M1158 26 H1174 V42" fill="none"/>
    <path d="M1174 633 V649 H1158" fill="none"/>
    <path d="M42 649 H26 V633" fill="none"/>
  </g>
  <!-- header band -->
  <text x="60" y="76" font-family='ui-monospace, Menlo, Consolas, monospace' font-size="20" font-weight="600" letter-spacing="3" text-anchor="start" fill="#c2360c" fill-opacity="1">PLATE 02</text>
  <text x="208" y="76" font-family='ui-monospace, Menlo, Consolas, monospace' font-size="20" font-weight="600" letter-spacing="3" text-anchor="start" fill="#29221b" fill-opacity="1">MCP-SANDBOX</text>
  <text x="1140" y="76" font-family='ui-monospace, Menlo, Consolas, monospace' font-size="15" font-weight="500" letter-spacing="3" text-anchor="end" fill="#29221b" fill-opacity="0.55">ONDREJ ULEHLA · 2026</text>
  <line x1="60" y1="94" x2="1140" y2="94" stroke="#29221b" stroke-opacity="0.6" stroke-width="1.6"/>
  <g clip-path="url(#hp-60-100)"><defs><clipPath id="hp-60-100"><rect x="60" y="100" width="150" height="8"/></clipPath></defs><g stroke="#29221b" stroke-opacity="0.5" stroke-width="1.4"><line x1="52" y1="108" x2="60" y2="100"/><line x1="59" y1="108" x2="67" y2="100"/><line x1="66" y1="108" x2="74" y2="100"/><line x1="73" y1="108" x2="81" y2="100"/><line x1="80" y1="108" x2="88" y2="100"/><line x1="87" y1="108" x2="95" y2="100"/><line x1="94" y1="108" x2="102" y2="100"/><line x1="101" y1="108" x2="109" y2="100"/><line x1="108" y1="108" x2="116" y2="100"/><line x1="115" y1="108" x2="123" y2="100"/><line x1="122" y1="108" x2="130" y2="100"/><line x1="129" y1="108" x2="137" y2="100"/><line x1="136" y1="108" x2="144" y2="100"/><line x1="143" y1="108" x2="151" y2="100"/><line x1="150" y1="108" x2="158" y2="100"/><line x1="157" y1="108" x2="165" y2="100"/><line x1="164" y1="108" x2="172" y2="100"/><line x1="171" y1="108" x2="179" y2="100"/><line x1="178" y1="108" x2="186" y2="100"/><line x1="185" y1="108" x2="193" y2="100"/><line x1="192" y1="108" x2="200" y2="100"/><line x1="199" y1="108" x2="207" y2="100"/><line x1="206" y1="108" x2="214" y2="100"/><line x1="213" y1="108" x2="221" y2="100"/></g></g>
  <!-- diagram -->
  <rect x="120" y="280" width="220" height="120" fill="#f7f3ea" stroke="#29221b" stroke-width="2.8" /><text x="230" y="330" font-family='ui-monospace, Menlo, Consolas, monospace' font-size="16" font-weight="600" letter-spacing="3" text-anchor="middle" fill="#29221b" fill-opacity="1">MCP CLIENT</text><text x="230" y="356" font-family='ui-monospace, Menlo, Consolas, monospace' font-size="12" font-weight="500" letter-spacing="3" text-anchor="middle" fill="#29221b" fill-opacity="0.5">CLAUDE · IDE</text><line x1="340" y1="340" x2="470" y2="340" stroke="#29221b" stroke-width="2.6" />
  <path d="M470 340 L459.9560216565646 344.48536498365524 M470 340 L459.9560216565646 335.51463501634476" stroke="#29221b" stroke-width="2.6" fill="none"/><rect x="470" y="306" width="150" height="68" fill="#f7f3ea" stroke="#29221b" stroke-width="1.8" /><text x="545" y="336" font-family='ui-monospace, Menlo, Consolas, monospace' font-size="14" font-weight="600" letter-spacing="3" text-anchor="middle" fill="#29221b" fill-opacity="1">STDIO</text><text x="545" y="356" font-family='ui-monospace, Menlo, Consolas, monospace' font-size="14" font-weight="600" letter-spacing="3" text-anchor="middle" fill="#29221b" fill-opacity="1">BRIDGE</text><line x1="620" y1="340" x2="740" y2="340" stroke="#29221b" stroke-width="2.6" />
  <path d="M740 340 L729.9560216565646 344.48536498365524 M740 340 L729.9560216565646 335.51463501634476" stroke="#29221b" stroke-width="2.6" fill="none"/><rect x="740" y="170" width="330" height="340" fill="#f7f3ea" stroke="#c2360c" stroke-width="2.4" stroke-dasharray="10 8"/><g clip-path="url(#hp-740-170)"><defs><clipPath id="hp-740-170"><rect x="740" y="170" width="330" height="16"/></clipPath></defs><g stroke="#c2360c" stroke-opacity="0.4" stroke-width="1.4"><line x1="724" y1="186" x2="740" y2="170"/><line x1="731" y1="186" x2="747" y2="170"/><line x1="738" y1="186" x2="754" y2="170"/><line x1="745" y1="186" x2="761" y2="170"/><line x1="752" y1="186" x2="768" y2="170"/><line x1="759" y1="186" x2="775" y2="170"/><line x1="766" y1="186" x2="782" y2="170"/><line x1="773" y1="186" x2="789" y2="170"/><line x1="780" y1="186" x2="796" y2="170"/><line x1="787" y1="186" x2="803" y2="170"/><line x1="794" y1="186" x2="810" y2="170"/><line x1="801" y1="186" x2="817" y2="170"/><line x1="808" y1="186" x2="824" y2="170"/><line x1="815" y1="186" x2="831" y2="170"/><line x1="822" y1="186" x2="838" y2="170"/><line x1="829" y1="186" x2="845" y2="170"/><line x1="836" y1="186" x2="852" y2="170"/><line x1="843" y1="186" x2="859" y2="170"/><line x1="850" y1="186" x2="866" y2="170"/><line x1="857" y1="186" x2="873" y2="170"/><line x1="864" y1="186" x2="880" y2="170"/><line x1="871" y1="186" x2="887" y2="170"/><line x1="878" y1="186" x2="894" y2="170"/><line x1="885" y1="186" x2="901" y2="170"/><line x1="892" y1="186" x2="908" y2="170"/><line x1="899" y1="186" x2="915" y2="170"/><line x1="906" y1="186" x2="922" y2="170"/><line x1="913" y1="186" x2="929" y2="170"/><line x1="920" y1="186" x2="936" y2="170"/><line x1="927" y1="186" x2="943" y2="170"/><line x1="934" y1="186" x2="950" y2="170"/><line x1="941" y1="186" x2="957" y2="170"/><line x1="948" y1="186" x2="964" y2="170"/><line x1="955" y1="186" x2="971" y2="170"/><line x1="962" y1="186" x2="978" y2="170"/><line x1="969" y1="186" x2="985" y2="170"/><line x1="976" y1="186" x2="992" y2="170"/><line x1="983" y1="186" x2="999" y2="170"/><line x1="990" y1="186" x2="1006" y2="170"/><line x1="997" y1="186" x2="1013" y2="170"/><line x1="1004" y1="186" x2="1020" y2="170"/><line x1="1011" y1="186" x2="1027" y2="170"/><line x1="1018" y1="186" x2="1034" y2="170"/><line x1="1025" y1="186" x2="1041" y2="170"/><line x1="1032" y1="186" x2="1048" y2="170"/><line x1="1039" y1="186" x2="1055" y2="170"/><line x1="1046" y1="186" x2="1062" y2="170"/><line x1="1053" y1="186" x2="1069" y2="170"/><line x1="1060" y1="186" x2="1076" y2="170"/><line x1="1067" y1="186" x2="1083" y2="170"/><line x1="1074" y1="186" x2="1090" y2="170"/><line x1="1081" y1="186" x2="1097" y2="170"/></g></g><g clip-path="url(#hp-740-494)"><defs><clipPath id="hp-740-494"><rect x="740" y="494" width="330" height="16"/></clipPath></defs><g stroke="#c2360c" stroke-opacity="0.4" stroke-width="1.4"><line x1="724" y1="510" x2="740" y2="494"/><line x1="731" y1="510" x2="747" y2="494"/><line x1="738" y1="510" x2="754" y2="494"/><line x1="745" y1="510" x2="761" y2="494"/><line x1="752" y1="510" x2="768" y2="494"/><line x1="759" y1="510" x2="775" y2="494"/><line x1="766" y1="510" x2="782" y2="494"/><line x1="773" y1="510" x2="789" y2="494"/><line x1="780" y1="510" x2="796" y2="494"/><line x1="787" y1="510" x2="803" y2="494"/><line x1="794" y1="510" x2="810" y2="494"/><line x1="801" y1="510" x2="817" y2="494"/><line x1="808" y1="510" x2="824" y2="494"/><line x1="815" y1="510" x2="831" y2="494"/><line x1="822" y1="510" x2="838" y2="494"/><line x1="829" y1="510" x2="845" y2="494"/><line x1="836" y1="510" x2="852" y2="494"/><line x1="843" y1="510" x2="859" y2="494"/><line x1="850" y1="510" x2="866" y2="494"/><line x1="857" y1="510" x2="873" y2="494"/><line x1="864" y1="510" x2="880" y2="494"/><line x1="871" y1="510" x2="887" y2="494"/><line x1="878" y1="510" x2="894" y2="494"/><line x1="885" y1="510" x2="901" y2="494"/><line x1="892" y1="510" x2="908" y2="494"/><line x1="899" y1="510" x2="915" y2="494"/><line x1="906" y1="510" x2="922" y2="494"/><line x1="913" y1="510" x2="929" y2="494"/><line x1="920" y1="510" x2="936" y2="494"/><line x1="927" y1="510" x2="943" y2="494"/><line x1="934" y1="510" x2="950" y2="494"/><line x1="941" y1="510" x2="957" y2="494"/><line x1="948" y1="510" x2="964" y2="494"/><line x1="955" y1="510" x2="971" y2="494"/><line x1="962" y1="510" x2="978" y2="494"/><line x1="969" y1="510" x2="985" y2="494"/><line x1="976" y1="510" x2="992" y2="494"/><line x1="983" y1="510" x2="999" y2="494"/><line x1="990" y1="510" x2="1006" y2="494"/><line x1="997" y1="510" x2="1013" y2="494"/><line x1="1004" y1="510" x2="1020" y2="494"/><line x1="1011" y1="510" x2="1027" y2="494"/><line x1="1018" y1="510" x2="1034" y2="494"/><line x1="1025" y1="510" x2="1041" y2="494"/><line x1="1032" y1="510" x2="1048" y2="494"/><line x1="1039" y1="510" x2="1055" y2="494"/><line x1="1046" y1="510" x2="1062" y2="494"/><line x1="1053" y1="510" x2="1069" y2="494"/><line x1="1060" y1="510" x2="1076" y2="494"/><line x1="1067" y1="510" x2="1083" y2="494"/><line x1="1074" y1="510" x2="1090" y2="494"/><line x1="1081" y1="510" x2="1097" y2="494"/></g></g><text x="905" y="212" font-family='ui-monospace, Menlo, Consolas, monospace' font-size="16" font-weight="600" letter-spacing="3" text-anchor="middle" fill="#c2360c" fill-opacity="1">E2B SANDBOX</text><rect x="800" y="250" width="210" height="90" fill="#f7f3ea" stroke="#29221b" stroke-width="2.8" /><text x="905" y="289" font-family='ui-monospace, Menlo, Consolas, monospace' font-size="14" font-weight="600" letter-spacing="3" text-anchor="middle" fill="#29221b" fill-opacity="1">MCP SERVER</text><text x="905" y="312" font-family='ui-monospace, Menlo, Consolas, monospace' font-size="12" font-weight="500" letter-spacing="3" text-anchor="middle" fill="#29221b" fill-opacity="0.5">UNTRUSTED</text><circle cx="905" cy="415" r="52" stroke="#c2360c" stroke-width="3" fill="none" stroke-dasharray="3 6"/><rect x="900" y="410" width="10" height="10" fill="#c2360c" transform="rotate(45 905 415)"/><text x="905" y="491" font-family='ui-monospace, Menlo, Consolas, monospace' font-size="12" font-weight="500" letter-spacing="3" text-anchor="middle" fill="#29221b" fill-opacity="0.6">BLAST RADIUS · CONTAINED</text><text x="230" y="430" font-family='ui-monospace, Menlo, Consolas, monospace' font-size="12" font-weight="500" letter-spacing="3" text-anchor="middle" fill="#29221b" fill-opacity="0.55">NO CODE CHANGES</text>
  <!-- footer -->
  <line x1="60" y1="601" x2="1140" y2="601" stroke="#29221b" stroke-opacity="0.35" stroke-width="1"/>
  <text x="60" y="631" font-family='ui-monospace, Menlo, Consolas, monospace' font-size="14" font-weight="500" letter-spacing="2.4" text-anchor="start" fill="#29221b" fill-opacity="0.6">RUN ANY MCP SERVER INSIDE AN ISOLATED CLOUD SANDBOX · ONE COMMAND</text>
  <g fill="none" stroke="#29221b" stroke-opacity="0.7" stroke-width="1.56" transform="translate(1098 606) scale(0.8333333333333334)">
    <rect x="7.5" y="7.5" width="11" height="11" /><rect x="29.5" y="7.5" width="11" height="11" /><rect x="7.5" y="29.5" width="11" height="11" /><rect x="29.5" y="29.5" width="11" height="11" />
    <rect x="18.5" y="4.5" width="11" height="11" transform="rotate(45 24 10)"/><rect x="32.5" y="18.5" width="11" height="11" transform="rotate(45 38 24)"/><rect x="18.5" y="32.5" width="11" height="11" transform="rotate(45 24 38)"/><rect x="4.5" y="18.5" width="11" height="11" transform="rotate(45 10 24)"/>
  </g>
</svg>
