<svg xmlns="http://www.w3.org/2000/svg" viewBox="0 0 160 160">
  <g fill="none" stroke="#c2360c" stroke-width="8" transform="translate(5 5)">
    <rect x="22" y="22" width="30" height="30"/>
    <rect x="98" y="22" width="30" height="30"/>
    <rect x="22" y="98" width="30" height="30"/>
    <rect x="98" y="98" width="30" height="30"/>
    <rect x="60" y="6" width="30" height="30" transform="rotate(45 75 21)"/>
    <rect x="114" y="60" width="30" height="30" transform="rotate(45 129 75)"/>
    <rect x="60" y="114" width="30" height="30" transform="rotate(45 75 129)"/>
    <rect x="6" y="60" width="30" height="30" transform="rotate(45 21 75)"/>
    <polygon points="75,51 78.6,66.2 92,58 83.8,71.4 99,75 83.8,78.6 92,92 78.6,83.8 75,99 71.4,83.8 58,92 66.2,78.6 51,75 66.2,71.4 58,58 71.4,66.2"/>
    <path d="M75 68v14M68 75h14"/>
  </g>
</svg>
