<svg xmlns="http://www.w3.org/2000/svg" width="1200" height="675" viewBox="0 0 1200 675">
  <rect width="1200" height="675" fill="#f7f3ea"/>
  <g stroke="#e2dac8" stroke-width="1"><line x1="60" y1="0" x2="60" y2="675"/><line x1="120" y1="0" x2="120" y2="675"/><line x1="180" y1="0" x2="180" y2="675"/><line x1="240" y1="0" x2="240" y2="675"/><line x1="300" y1="0" x2="300" y2="675"/><line x1="360" y1="0" x2="360" y2="675"/><line x1="420" y1="0" x2="420" y2="675"/><line x1="480" y1="0" x2="480" y2="675"/><line x1="540" y1="0" x2="540" y2="675"/><line x1="600" y1="0" x2="600" y2="675"/><line x1="660" y1="0" x2="660" y2="675"/><line x1="720" y1="0" x2="720" y2="675"/><line x1="780" y1="0" x2="780" y2="675"/><line x1="840" y1="0" x2="840" y2="675"/><line x1="900" y1="0" x2="900" y2="675"/><line x1="960" y1="0" x2="960" y2="675"/><line x1="1020" y1="0" x2="1020" y2="675"/><line x1="1080" y1="0" x2="1080" y2="675"/><line x1="1140" y1="0" x2="1140" y2="675"/><line x1="0" y1="15" x2="1200" y2="15"/><line x1="0" y1="75" x2="1200" y2="75"/><line x1="0" y1="135" x2="1200" y2="135"/><line x1="0" y1="195" x2="1200" y2="195"/><line x1="0" y1="255" x2="1200" y2="255"/><line x1="0" y1="315" x2="1200" y2="315"/><line x1="0" y1="375" x2="1200" y2="375"/><line x1="0" y1="435" x2="1200" y2="435"/><line x1="0" y1="495" x2="1200" y2="495"/><line x1="0" y1="555" x2="1200" y2="555"/><line x1="0" y1="615" x2="1200" y2="615"/></g>
  <g stroke="#29221b" stroke-opacity="0.65" stroke-width="2">
    <path d="M26 42 V26 H42" fill="none"/>
    <path d="M1158 26 H1174 V42" fill="none"/>
    <path d="M1174 633 V649 H1158" fill="none"/>
    <path d="M42 649 H26 V633" fill="none"/>
  </g>
  <!-- header band -->
  <text x="60" y="76" font-family='ui-monospace, Menlo, Consolas, monospace' font-size="20" font-weight="600" letter-spacing="3" text-anchor="start" fill="#c2360c" fill-opacity="1">PLATE 07</text>
  <text x="208" y="76" font-family='ui-monospace, Menlo, Consolas, monospace' font-size="20" font-weight="600" letter-spacing="3" text-anchor="start" fill="#29221b" fill-opacity="1">URL SHORTENER ON MICROSERVICES</text>
  <text x="1140" y="76" font-family='ui-monospace, Menlo, Consolas, monospace' font-size="15" font-weight="500" letter-spacing="3" text-anchor="end" fill="#29221b" fill-opacity="0.55">ONDREJ ULEHLA · 2026</text>
  <line x1="60" y1="94" x2="1140" y2="94" stroke="#29221b" stroke-opacity="0.6" stroke-width="1.6"/>
  <g clip-path="url(#hp-60-100)"><defs><clipPath id="hp-60-100"><rect x="60" y="100" width="150" height="8"/></clipPath></defs><g stroke="#29221b" stroke-opacity="0.5" stroke-width="1.4"><line x1="52" y1="108" x2="60" y2="100"/><line x1="59" y1="108" x2="67" y2="100"/><line x1="66" y1="108" x2="74" y2="100"/><line x1="73" y1="108" x2="81" y2="100"/><line x1="80" y1="108" x2="88" y2="100"/><line x1="87" y1="108" x2="95" y2="100"/><line x1="94" y1="108" x2="102" y2="100"/><line x1="101" y1="108" x2="109" y2="100"/><line x1="108" y1="108" x2="116" y2="100"/><line x1="115" y1="108" x2="123" y2="100"/><line x1="122" y1="108" x2="130" y2="100"/><line x1="129" y1="108" x2="137" y2="100"/><line x1="136" y1="108" x2="144" y2="100"/><line x1="143" y1="108" x2="151" y2="100"/><line x1="150" y1="108" x2="158" y2="100"/><line x1="157" y1="108" x2="165" y2="100"/><line x1="164" y1="108" x2="172" y2="100"/><line x1="171" y1="108" x2="179" y2="100"/><line x1="178" y1="108" x2="186" y2="100"/><line x1="185" y1="108" x2="193" y2="100"/><line x1="192" y1="108" x2="200" y2="100"/><line x1="199" y1="108" x2="207" y2="100"/><line x1="206" y1="108" x2="214" y2="100"/><line x1="213" y1="108" x2="221" y2="100"/></g></g>
  <!-- diagram -->
  <text x="150" y="172" font-family='ui-monospace, Menlo, Consolas, monospace' font-size="14" font-weight="500" letter-spacing="3" text-anchor="start" fill="#29221b" fill-opacity="0.6">HTTPS://VERY-LONG-URL.EXAMPLE/PATH?q=…</text><line x1="150" y1="188" x2="150" y2="330" stroke="#29221b" stroke-width="2" />
  <path d="M150 330 L145.51463501634473 319.9560216565646 M150 330 L154.48536498365527 319.9560216565646" stroke="#29221b" stroke-width="2" fill="none"/><rect x="120" y="330" width="190" height="90" fill="#f7f3ea" stroke="#29221b" stroke-width="2.2" /><text x="215" y="368" font-family='ui-monospace, Menlo, Consolas, monospace' font-size="16" font-weight="600" letter-spacing="3" text-anchor="middle" fill="#29221b" fill-opacity="1">API</text><text x="215" y="392" font-family='ui-monospace, Menlo, Consolas, monospace' font-size="11" font-weight="500" letter-spacing="3" text-anchor="middle" fill="#29221b" fill-opacity="0.5">EXPRESS</text><line x1="310" y1="375" x2="430" y2="375" stroke="#29221b" stroke-width="2" />
  <path d="M430 375 L419.9560216565646 379.48536498365524 M430 375 L419.9560216565646 370.51463501634476" stroke="#29221b" stroke-width="2" fill="none"/><rect x="430" y="330" width="190" height="90" fill="#f7f3ea" stroke="#29221b" stroke-width="2.2" /><text x="525" y="368" font-family='ui-monospace, Menlo, Consolas, monospace' font-size="16" font-weight="600" letter-spacing="3" text-anchor="middle" fill="#29221b" fill-opacity="1">HASHER</text><text x="525" y="392" font-family='ui-monospace, Menlo, Consolas, monospace' font-size="11" font-weight="500" letter-spacing="3" text-anchor="middle" fill="#29221b" fill-opacity="0.5">BASE62</text><line x1="620" y1="375" x2="740" y2="375" stroke="#29221b" stroke-width="2" />
  <path d="M740 375 L729.9560216565646 379.48536498365524 M740 375 L729.9560216565646 370.51463501634476" stroke="#29221b" stroke-width="2" fill="none"/><rect x="740" y="330" width="190" height="90" fill="#f7f3ea" stroke="#29221b" stroke-width="2.2" /><text x="835" y="368" font-family='ui-monospace, Menlo, Consolas, monospace' font-size="16" font-weight="600" letter-spacing="3" text-anchor="middle" fill="#29221b" fill-opacity="1">STORE</text><text x="835" y="392" font-family='ui-monospace, Menlo, Consolas, monospace' font-size="11" font-weight="500" letter-spacing="3" text-anchor="middle" fill="#29221b" fill-opacity="0.5">REDIS · PG</text><path d="M930 375 H 1030 V 210 H 260 V 320" stroke="#c2360c" stroke-width="2.2" fill="none" stroke-dasharray="8 7"/><line x1="260" y1="315" x2="260" y2="330" stroke="#c2360c" stroke-width="2" />
  <path d="M260 330 L255.51463501634473 319.9560216565646 M260 330 L264.48536498365524 319.9560216565646" stroke="#c2360c" stroke-width="2" fill="none"/><text x="645" y="200" font-family='ui-monospace, Menlo, Consolas, monospace' font-size="15" font-weight="600" letter-spacing="3" text-anchor="middle" fill="#c2360c" fill-opacity="1">301 · ULEH.LA/K7</text><line x1="525" y1="420" x2="525" y2="500" stroke="#29221b" stroke-width="1.6" fill="none" stroke-dasharray="2 6"/><rect x="424" y="494" width="12" height="12" fill="#c2360c" transform="rotate(45 430 500)"/><rect x="472" y="494" width="12" height="12" fill="#c2360c" transform="rotate(45 478 500)"/><rect x="520" y="494" width="12" height="12" fill="#c2360c" transform="rotate(45 526 500)"/><rect x="568" y="494" width="12" height="12" fill="#f7f3ea" transform="rotate(45 574 500)"/><rect x="568" y="494" width="12" height="12" fill="none" stroke="#29221b" stroke-width="1.6" transform="rotate(45 574 500)"/><rect x="616" y="494" width="12" height="12" fill="#f7f3ea" transform="rotate(45 622 500)"/><rect x="616" y="494" width="12" height="12" fill="none" stroke="#29221b" stroke-width="1.6" transform="rotate(45 622 500)"/><text x="390" y="505" font-family='ui-monospace, Menlo, Consolas, monospace' font-size="13" font-weight="500" letter-spacing="3" text-anchor="end" fill="#29221b" fill-opacity="0.6">QUEUE</text><line x1="670" y1="500" x2="740" y2="500" stroke="#29221b" stroke-width="2" />
  <path d="M740 500 L729.9560216565646 504.48536498365524 M740 500 L729.9560216565646 495.51463501634476" stroke="#29221b" stroke-width="2" fill="none"/><rect x="740" y="460" width="190" height="80" fill="#f7f3ea" stroke="#29221b" stroke-width="2.2" /><text x="835" y="495" font-family='ui-monospace, Menlo, Consolas, monospace' font-size="14" font-weight="600" letter-spacing="3" text-anchor="middle" fill="#29221b" fill-opacity="1">ANALYTICS</text><text x="835" y="518" font-family='ui-monospace, Menlo, Consolas, monospace' font-size="11" font-weight="500" letter-spacing="3" text-anchor="middle" fill="#29221b" fill-opacity="0.5">ASYNC WORKER</text>
  <!-- footer -->
  <line x1="60" y1="601" x2="1140" y2="601" stroke="#29221b" stroke-opacity="0.35" stroke-width="1"/>
  <text x="60" y="631" font-family='ui-monospace, Menlo, Consolas, monospace' font-size="14" font-weight="500" letter-spacing="2.4" text-anchor="start" fill="#29221b" fill-opacity="0.6">HASH · STORE · REDIRECT · ASYNC ANALYTICS OVER A MESSAGE QUEUE</text>
  <g fill="none" stroke="#29221b" stroke-opacity="0.7" stroke-width="1.56" transform="translate(1098 606) scale(0.8333333333333334)">
    <rect x="7.5" y="7.5" width="11" height="11" /><rect x="29.5" y="7.5" width="11" height="11" /><rect x="7.5" y="29.5" width="11" height="11" /><rect x="29.5" y="29.5" width="11" height="11" />
    <rect x="18.5" y="4.5" width="11" height="11" transform="rotate(45 24 10)"/><rect x="32.5" y="18.5" width="11" height="11" transform="rotate(45 38 24)"/><rect x="18.5" y="32.5" width="11" height="11" transform="rotate(45 24 38)"/><rect x="4.5" y="18.5" width="11" height="11" transform="rotate(45 10 24)"/>
  </g>
</svg>
