<svg xmlns="http://www.w3.org/2000/svg" width="1200" height="675" viewBox="0 0 1200 675">
  <defs>
    <linearGradient id="g" x1="0" y1="0" x2="1" y2="1">
      <stop offset="0" stop-color="#0f172a"/>
      <stop offset="1" stop-color="#155e75"/>
    </linearGradient>
  </defs>
  <rect width="1200" height="675" fill="url(#g)"/>
  <g stroke="#ffffff" stroke-opacity="0.18" stroke-width="1.5">
    <line x1="140" y1="140" x2="140" y2="540"/>
    <line x1="140" y1="540" x2="1060" y2="540"/>
  </g>
  <g rx="5">
    <rect x="170" y="170" width="60" height="22" rx="6" fill="#3987e5"/>
    <rect x="250" y="215" width="26" height="22" rx="6" fill="#c3c2b7" fill-opacity="0.5"/>
    <rect x="300" y="260" width="240" height="22" rx="6" fill="#199e70"/>
    <rect x="300" y="260" width="240" height="22" rx="6" fill="none" stroke="#e34948" stroke-width="4"/>
    <rect x="580" y="305" width="70" height="22" rx="6" fill="#c98500"/>
    <rect x="680" y="350" width="55" height="22" rx="6" fill="#9085e9"/>
    <rect x="760" y="395" width="190" height="22" rx="6" fill="#199e70"/>
    <rect x="980" y="440" width="60" height="22" rx="6" fill="#3987e5"/>
  </g>
  <g font-family="monospace" font-size="26" fill="#ffffff" fill-opacity="0.6">
    <text x="170" y="120">48.0 s · 2 turns · 8 tool calls · 1 failed · $0.15 est.</text>
  </g>
  <text x="140" y="620" font-family="monospace" font-size="34" fill="#ffffff" fill-opacity="0.9">agent-lens · session timeline</text>
</svg>
