<svg xmlns="http://www.w3.org/2000/svg" width="1200" height="675" viewBox="0 0 1200 675">
  <rect width="1200" height="675" fill="#f7f3ea"/>
  <g stroke="#e2dac8" stroke-width="1"><line x1="60" y1="0" x2="60" y2="675"/><line x1="120" y1="0" x2="120" y2="675"/><line x1="180" y1="0" x2="180" y2="675"/><line x1="240" y1="0" x2="240" y2="675"/><line x1="300" y1="0" x2="300" y2="675"/><line x1="360" y1="0" x2="360" y2="675"/><line x1="420" y1="0" x2="420" y2="675"/><line x1="480" y1="0" x2="480" y2="675"/><line x1="540" y1="0" x2="540" y2="675"/><line x1="600" y1="0" x2="600" y2="675"/><line x1="660" y1="0" x2="660" y2="675"/><line x1="720" y1="0" x2="720" y2="675"/><line x1="780" y1="0" x2="780" y2="675"/><line x1="840" y1="0" x2="840" y2="675"/><line x1="900" y1="0" x2="900" y2="675"/><line x1="960" y1="0" x2="960" y2="675"/><line x1="1020" y1="0" x2="1020" y2="675"/><line x1="1080" y1="0" x2="1080" y2="675"/><line x1="1140" y1="0" x2="1140" y2="675"/><line x1="0" y1="15" x2="1200" y2="15"/><line x1="0" y1="75" x2="1200" y2="75"/><line x1="0" y1="135" x2="1200" y2="135"/><line x1="0" y1="195" x2="1200" y2="195"/><line x1="0" y1="255" x2="1200" y2="255"/><line x1="0" y1="315" x2="1200" y2="315"/><line x1="0" y1="375" x2="1200" y2="375"/><line x1="0" y1="435" x2="1200" y2="435"/><line x1="0" y1="495" x2="1200" y2="495"/><line x1="0" y1="555" x2="1200" y2="555"/><line x1="0" y1="615" x2="1200" y2="615"/></g>
  <g stroke="#29221b" stroke-opacity="0.65" stroke-width="2">
    <path d="M26 42 V26 H42" fill="none"/>
    <path d="M1158 26 H1174 V42" fill="none"/>
    <path d="M1174 633 V649 H1158" fill="none"/>
    <path d="M42 649 H26 V633" fill="none"/>
  </g>
  <!-- header band -->
  <text x="60" y="76" font-family='ui-monospace, Menlo, Consolas, monospace' font-size="20" font-weight="600" letter-spacing="3" text-anchor="start" fill="#c2360c" fill-opacity="1">AI APPLICATION PLATFORM</text>
  <text x="1140" y="76" font-family='ui-monospace, Menlo, Consolas, monospace' font-size="15" font-weight="500" letter-spacing="3" text-anchor="end" fill="#29221b" fill-opacity="0.55">ONDREJ ULEHLA · 2026</text>
  <line x1="60" y1="94" x2="1140" y2="94" stroke="#29221b" stroke-opacity="0.6" stroke-width="1.6"/>
  <g clip-path="url(#hp-60-100)"><defs><clipPath id="hp-60-100"><rect x="60" y="100" width="150" height="8"/></clipPath></defs><g stroke="#29221b" stroke-opacity="0.5" stroke-width="1.4"><line x1="52" y1="108" x2="60" y2="100"/><line x1="59" y1="108" x2="67" y2="100"/><line x1="66" y1="108" x2="74" y2="100"/><line x1="73" y1="108" x2="81" y2="100"/><line x1="80" y1="108" x2="88" y2="100"/><line x1="87" y1="108" x2="95" y2="100"/><line x1="94" y1="108" x2="102" y2="100"/><line x1="101" y1="108" x2="109" y2="100"/><line x1="108" y1="108" x2="116" y2="100"/><line x1="115" y1="108" x2="123" y2="100"/><line x1="122" y1="108" x2="130" y2="100"/><line x1="129" y1="108" x2="137" y2="100"/><line x1="136" y1="108" x2="144" y2="100"/><line x1="143" y1="108" x2="151" y2="100"/><line x1="150" y1="108" x2="158" y2="100"/><line x1="157" y1="108" x2="165" y2="100"/><line x1="164" y1="108" x2="172" y2="100"/><line x1="171" y1="108" x2="179" y2="100"/><line x1="178" y1="108" x2="186" y2="100"/><line x1="185" y1="108" x2="193" y2="100"/><line x1="192" y1="108" x2="200" y2="100"/><line x1="199" y1="108" x2="207" y2="100"/><line x1="206" y1="108" x2="214" y2="100"/><line x1="213" y1="108" x2="221" y2="100"/></g></g>
  <!-- diagram -->
  <rect x="470" y="270" width="260" height="150" fill="#f7f3ea" stroke="#29221b" stroke-width="2.6" /><text x="600" y="330" font-family='ui-monospace, Menlo, Consolas, monospace' font-size="18" font-weight="600" letter-spacing="3" text-anchor="middle" fill="#29221b" fill-opacity="1">CORE</text><text x="600" y="356" font-family='ui-monospace, Menlo, Consolas, monospace' font-size="12" font-weight="500" letter-spacing="3" text-anchor="middle" fill="#29221b" fill-opacity="0.55">TYPED API · TRPC</text><g clip-path="url(#hp-470-270)"><defs><clipPath id="hp-470-270"><rect x="470" y="270" width="260" height="12"/></clipPath></defs><g stroke="#29221b" stroke-opacity="0.5" stroke-width="1.4"><line x1="458" y1="282" x2="470" y2="270"/><line x1="465" y1="282" x2="477" y2="270"/><line x1="472" y1="282" x2="484" y2="270"/><line x1="479" y1="282" x2="491" y2="270"/><line x1="486" y1="282" x2="498" y2="270"/><line x1="493" y1="282" x2="505" y2="270"/><line x1="500" y1="282" x2="512" y2="270"/><line x1="507" y1="282" x2="519" y2="270"/><line x1="514" y1="282" x2="526" y2="270"/><line x1="521" y1="282" x2="533" y2="270"/><line x1="528" y1="282" x2="540" y2="270"/><line x1="535" y1="282" x2="547" y2="270"/><line x1="542" y1="282" x2="554" y2="270"/><line x1="549" y1="282" x2="561" y2="270"/><line x1="556" y1="282" x2="568" y2="270"/><line x1="563" y1="282" x2="575" y2="270"/><line x1="570" y1="282" x2="582" y2="270"/><line x1="577" y1="282" x2="589" y2="270"/><line x1="584" y1="282" x2="596" y2="270"/><line x1="591" y1="282" x2="603" y2="270"/><line x1="598" y1="282" x2="610" y2="270"/><line x1="605" y1="282" x2="617" y2="270"/><line x1="612" y1="282" x2="624" y2="270"/><line x1="619" y1="282" x2="631" y2="270"/><line x1="626" y1="282" x2="638" y2="270"/><line x1="633" y1="282" x2="645" y2="270"/><line x1="640" y1="282" x2="652" y2="270"/><line x1="647" y1="282" x2="659" y2="270"/><line x1="654" y1="282" x2="666" y2="270"/><line x1="661" y1="282" x2="673" y2="270"/><line x1="668" y1="282" x2="680" y2="270"/><line x1="675" y1="282" x2="687" y2="270"/><line x1="682" y1="282" x2="694" y2="270"/><line x1="689" y1="282" x2="701" y2="270"/><line x1="696" y1="282" x2="708" y2="270"/><line x1="703" y1="282" x2="715" y2="270"/><line x1="710" y1="282" x2="722" y2="270"/><line x1="717" y1="282" x2="729" y2="270"/><line x1="724" y1="282" x2="736" y2="270"/><line x1="731" y1="282" x2="743" y2="270"/><line x1="738" y1="282" x2="750" y2="270"/></g></g><rect x="150" y="170" width="180" height="90" fill="#f7f3ea" stroke="#29221b" stroke-width="2.8" /><text x="240" y="210" font-family='ui-monospace, Menlo, Consolas, monospace' font-size="15" font-weight="600" letter-spacing="3" text-anchor="middle" fill="#29221b" fill-opacity="1">CHAT</text><text x="240" y="233" font-family='ui-monospace, Menlo, Consolas, monospace' font-size="11" font-weight="500" letter-spacing="3" text-anchor="middle" fill="#29221b" fill-opacity="0.5">PLUGIN</text><path d="M330 215 H 400 V 300 H 470" stroke="#29221b" stroke-width="3" fill="none"/><rect x="465" y="295" width="10" height="10" fill="#c2360c" transform="rotate(45 470 300)"/><rect x="150" y="430" width="180" height="90" fill="#f7f3ea" stroke="#29221b" stroke-width="2.8" /><text x="240" y="470" font-family='ui-monospace, Menlo, Consolas, monospace' font-size="15" font-weight="600" letter-spacing="3" text-anchor="middle" fill="#29221b" fill-opacity="1">RAG</text><text x="240" y="493" font-family='ui-monospace, Menlo, Consolas, monospace' font-size="11" font-weight="500" letter-spacing="3" text-anchor="middle" fill="#29221b" fill-opacity="0.5">PLUGIN</text><path d="M330 475 H 400 V 390 H 470" stroke="#29221b" stroke-width="3" fill="none"/><rect x="465" y="385" width="10" height="10" fill="#c2360c" transform="rotate(45 470 390)"/><rect x="900" y="170" width="180" height="90" fill="#f7f3ea" stroke="#29221b" stroke-width="2.8" /><text x="990" y="210" font-family='ui-monospace, Menlo, Consolas, monospace' font-size="15" font-weight="600" letter-spacing="3" text-anchor="middle" fill="#29221b" fill-opacity="1">AGENTS</text><text x="990" y="233" font-family='ui-monospace, Menlo, Consolas, monospace' font-size="11" font-weight="500" letter-spacing="3" text-anchor="middle" fill="#29221b" fill-opacity="0.5">PLUGIN</text><path d="M900 215 H 815 V 300 H 730" stroke="#29221b" stroke-width="3" fill="none"/><rect x="725" y="295" width="10" height="10" fill="#c2360c" transform="rotate(45 730 300)"/><rect x="900" y="430" width="180" height="90" fill="#f7f3ea" stroke="#29221b" stroke-width="2.8" /><text x="990" y="470" font-family='ui-monospace, Menlo, Consolas, monospace' font-size="15" font-weight="600" letter-spacing="3" text-anchor="middle" fill="#29221b" fill-opacity="1">BILLING</text><text x="990" y="493" font-family='ui-monospace, Menlo, Consolas, monospace' font-size="11" font-weight="500" letter-spacing="3" text-anchor="middle" fill="#29221b" fill-opacity="0.5">PLUGIN</text><path d="M900 475 H 815 V 390 H 730" stroke="#29221b" stroke-width="3" fill="none"/><rect x="725" y="385" width="10" height="10" fill="#c2360c" transform="rotate(45 730 390)"/><text x="600" y="560" font-family='ui-monospace, Menlo, Consolas, monospace' font-size="13" font-weight="500" letter-spacing="3" text-anchor="middle" fill="#29221b" fill-opacity="0.6">ONE DESIGN SYSTEM · SHARED SCHEMAS · TURBOREPO</text>
  <!-- footer -->
  <line x1="60" y1="601" x2="1140" y2="601" stroke="#29221b" stroke-opacity="0.35" stroke-width="1"/>
  <text x="60" y="631" font-family='ui-monospace, Menlo, Consolas, monospace' font-size="14" font-weight="500" letter-spacing="2.4" text-anchor="start" fill="#29221b" fill-opacity="0.6">TYPESCRIPT MONOREPO FOR AI PRODUCTS · PLUGIN ARCHITECTURE · TYPED APIS</text>
  <g fill="none" stroke="#29221b" stroke-opacity="0.7" stroke-width="5.625" transform="translate(1098 606) scale(0.26666666666666666)">
    <rect x="22" y="22" width="30" height="30" /><rect x="98" y="22" width="30" height="30" /><rect x="22" y="98" width="30" height="30" /><rect x="98" y="98" width="30" height="30" />
    <rect x="60" y="6" width="30" height="30" transform="rotate(45 75 21)"/><rect x="114" y="60" width="30" height="30" transform="rotate(45 129 75)"/><rect x="60" y="114" width="30" height="30" transform="rotate(45 75 129)"/><rect x="6" y="60" width="30" height="30" transform="rotate(45 21 75)"/>
    <polygon points="75,51 78.6,66.2 92,58 83.8,71.4 99,75 83.8,78.6 92,92 78.6,83.8 75,99 71.4,83.8 58,92 66.2,78.6 51,75 66.2,71.4 58,58 71.4,66.2"/>
    <path d="M75 68v14M68 75h14"/>
  </g>
</svg>
