<svg xmlns="http://www.w3.org/2000/svg" width="1200" height="675" viewBox="0 0 1200 675">
  <rect width="1200" height="675" fill="#f7f3ea"/>
  <g stroke="#e2dac8" stroke-width="1"><line x1="60" y1="0" x2="60" y2="675"/><line x1="120" y1="0" x2="120" y2="675"/><line x1="180" y1="0" x2="180" y2="675"/><line x1="240" y1="0" x2="240" y2="675"/><line x1="300" y1="0" x2="300" y2="675"/><line x1="360" y1="0" x2="360" y2="675"/><line x1="420" y1="0" x2="420" y2="675"/><line x1="480" y1="0" x2="480" y2="675"/><line x1="540" y1="0" x2="540" y2="675"/><line x1="600" y1="0" x2="600" y2="675"/><line x1="660" y1="0" x2="660" y2="675"/><line x1="720" y1="0" x2="720" y2="675"/><line x1="780" y1="0" x2="780" y2="675"/><line x1="840" y1="0" x2="840" y2="675"/><line x1="900" y1="0" x2="900" y2="675"/><line x1="960" y1="0" x2="960" y2="675"/><line x1="1020" y1="0" x2="1020" y2="675"/><line x1="1080" y1="0" x2="1080" y2="675"/><line x1="1140" y1="0" x2="1140" y2="675"/><line x1="0" y1="15" x2="1200" y2="15"/><line x1="0" y1="75" x2="1200" y2="75"/><line x1="0" y1="135" x2="1200" y2="135"/><line x1="0" y1="195" x2="1200" y2="195"/><line x1="0" y1="255" x2="1200" y2="255"/><line x1="0" y1="315" x2="1200" y2="315"/><line x1="0" y1="375" x2="1200" y2="375"/><line x1="0" y1="435" x2="1200" y2="435"/><line x1="0" y1="495" x2="1200" y2="495"/><line x1="0" y1="555" x2="1200" y2="555"/><line x1="0" y1="615" x2="1200" y2="615"/></g>
  <g stroke="#29221b" stroke-opacity="0.65" stroke-width="2">
    <path d="M26 42 V26 H42" fill="none"/>
    <path d="M1158 26 H1174 V42" fill="none"/>
    <path d="M1174 633 V649 H1158" fill="none"/>
    <path d="M42 649 H26 V633" fill="none"/>
  </g>
  <!-- header band -->
  <text x="60" y="76" font-family='ui-monospace, Menlo, Consolas, monospace' font-size="20" font-weight="600" letter-spacing="3" text-anchor="start" fill="#c2360c" fill-opacity="1">PLATE 03</text>
  <text x="208" y="76" font-family='ui-monospace, Menlo, Consolas, monospace' font-size="20" font-weight="600" letter-spacing="3" text-anchor="start" fill="#29221b" fill-opacity="1">AGENT-AUDIT</text>
  <text x="1140" y="76" font-family='ui-monospace, Menlo, Consolas, monospace' font-size="15" font-weight="500" letter-spacing="3" text-anchor="end" fill="#29221b" fill-opacity="0.55">ONDREJ ULEHLA · 2026</text>
  <line x1="60" y1="94" x2="1140" y2="94" stroke="#29221b" stroke-opacity="0.6" stroke-width="1.6"/>
  <g clip-path="url(#hp-60-100)"><defs><clipPath id="hp-60-100"><rect x="60" y="100" width="150" height="8"/></clipPath></defs><g stroke="#29221b" stroke-opacity="0.5" stroke-width="1.4"><line x1="52" y1="108" x2="60" y2="100"/><line x1="59" y1="108" x2="67" y2="100"/><line x1="66" y1="108" x2="74" y2="100"/><line x1="73" y1="108" x2="81" y2="100"/><line x1="80" y1="108" x2="88" y2="100"/><line x1="87" y1="108" x2="95" y2="100"/><line x1="94" y1="108" x2="102" y2="100"/><line x1="101" y1="108" x2="109" y2="100"/><line x1="108" y1="108" x2="116" y2="100"/><line x1="115" y1="108" x2="123" y2="100"/><line x1="122" y1="108" x2="130" y2="100"/><line x1="129" y1="108" x2="137" y2="100"/><line x1="136" y1="108" x2="144" y2="100"/><line x1="143" y1="108" x2="151" y2="100"/><line x1="150" y1="108" x2="158" y2="100"/><line x1="157" y1="108" x2="165" y2="100"/><line x1="164" y1="108" x2="172" y2="100"/><line x1="171" y1="108" x2="179" y2="100"/><line x1="178" y1="108" x2="186" y2="100"/><line x1="185" y1="108" x2="193" y2="100"/><line x1="192" y1="108" x2="200" y2="100"/><line x1="199" y1="108" x2="207" y2="100"/><line x1="206" y1="108" x2="214" y2="100"/><line x1="213" y1="108" x2="221" y2="100"/></g></g>
  <!-- diagram -->
  <rect x="140" y="150" width="440" height="400" fill="#f7f3ea" stroke="#29221b" stroke-width="2.2" /><text x="166" y="195" font-family='ui-monospace, Menlo, Consolas, monospace' font-size="12" font-weight="500" letter-spacing="3" text-anchor="start" fill="#29221b" fill-opacity="0.35">01</text><line x1="205" y1="190" x2="295" y2="190" stroke="#29221b" stroke-opacity="0.35" stroke-width="2"/><text x="166" y="226" font-family='ui-monospace, Menlo, Consolas, monospace' font-size="12" font-weight="500" letter-spacing="3" text-anchor="start" fill="#29221b" fill-opacity="0.35">02</text><line x1="205" y1="221" x2="368" y2="221" stroke="#29221b" stroke-opacity="0.35" stroke-width="2"/><text x="166" y="257" font-family='ui-monospace, Menlo, Consolas, monospace' font-size="12" font-weight="500" letter-spacing="3" text-anchor="start" fill="#29221b" fill-opacity="0.35">03</text><line x1="205" y1="252" x2="501" y2="252" stroke="#c2360c" stroke-opacity="1" stroke-width="3"/><rect x="155.5" y="247.5" width="9" height="9" fill="#c2360c" transform="rotate(45 160 252)"/><text x="166" y="288" font-family='ui-monospace, Menlo, Consolas, monospace' font-size="12" font-weight="500" letter-spacing="3" text-anchor="start" fill="#29221b" fill-opacity="0.35">04</text><line x1="205" y1="283" x2="304" y2="283" stroke="#29221b" stroke-opacity="0.35" stroke-width="2"/><text x="166" y="319" font-family='ui-monospace, Menlo, Consolas, monospace' font-size="12" font-weight="500" letter-spacing="3" text-anchor="start" fill="#29221b" fill-opacity="0.35">05</text><line x1="205" y1="314" x2="377" y2="314" stroke="#29221b" stroke-opacity="0.35" stroke-width="2"/><text x="166" y="350" font-family='ui-monospace, Menlo, Consolas, monospace' font-size="12" font-weight="500" letter-spacing="3" text-anchor="start" fill="#29221b" fill-opacity="0.35">06</text><line x1="205" y1="345" x2="450" y2="345" stroke="#29221b" stroke-opacity="0.35" stroke-width="2"/><text x="166" y="381" font-family='ui-monospace, Menlo, Consolas, monospace' font-size="12" font-weight="500" letter-spacing="3" text-anchor="start" fill="#29221b" fill-opacity="0.35">07</text><line x1="205" y1="376" x2="373" y2="376" stroke="#c2360c" stroke-opacity="1" stroke-width="3"/><rect x="155.5" y="371.5" width="9" height="9" fill="#c2360c" transform="rotate(45 160 376)"/><text x="166" y="412" font-family='ui-monospace, Menlo, Consolas, monospace' font-size="12" font-weight="500" letter-spacing="3" text-anchor="start" fill="#29221b" fill-opacity="0.35">08</text><line x1="205" y1="407" x2="386" y2="407" stroke="#29221b" stroke-opacity="0.35" stroke-width="2"/><text x="166" y="443" font-family='ui-monospace, Menlo, Consolas, monospace' font-size="12" font-weight="500" letter-spacing="3" text-anchor="start" fill="#29221b" fill-opacity="0.35">09</text><line x1="205" y1="438" x2="459" y2="438" stroke="#29221b" stroke-opacity="0.35" stroke-width="2"/><text x="166" y="474" font-family='ui-monospace, Menlo, Consolas, monospace' font-size="12" font-weight="500" letter-spacing="3" text-anchor="start" fill="#29221b" fill-opacity="0.35">10</text><line x1="205" y1="469" x2="382" y2="469" stroke="#c2360c" stroke-opacity="1" stroke-width="3"/><rect x="155.5" y="464.5" width="9" height="9" fill="#c2360c" transform="rotate(45 160 469)"/><text x="166" y="505" font-family='ui-monospace, Menlo, Consolas, monospace' font-size="12" font-weight="500" letter-spacing="3" text-anchor="start" fill="#29221b" fill-opacity="0.35">11</text><line x1="205" y1="500" x2="395" y2="500" stroke="#29221b" stroke-opacity="0.35" stroke-width="2"/><text x="166" y="536" font-family='ui-monospace, Menlo, Consolas, monospace' font-size="12" font-weight="500" letter-spacing="3" text-anchor="start" fill="#29221b" fill-opacity="0.35">12</text><line x1="205" y1="531" x2="468" y2="531" stroke="#29221b" stroke-opacity="0.35" stroke-width="2"/><path d="M580 252 H 660 V 205 H 700" stroke="#c2360c" stroke-width="1.8" fill="none"/><rect x="700" y="171" width="330" height="68" fill="#f7f3ea" stroke="#29221b" stroke-width="1.8" /><text x="724" y="199" font-family='ui-monospace, Menlo, Consolas, monospace' font-size="16" font-weight="600" letter-spacing="3" text-anchor="start" fill="#c2360c" fill-opacity="1">MCP003</text><text x="724" y="223" font-family='ui-monospace, Menlo, Consolas, monospace' font-size="13" font-weight="500" letter-spacing="3" text-anchor="start" fill="#29221b" fill-opacity="0.6">INLINE API KEY</text><g clip-path="url(#hp-1006-171)"><defs><clipPath id="hp-1006-171"><rect x="1006" y="171" width="24" height="68"/></clipPath></defs><g stroke="#c2360c" stroke-opacity="0.45" stroke-width="1.4"><line x1="938" y1="239" x2="1006" y2="171"/><line x1="945" y1="239" x2="1013" y2="171"/><line x1="952" y1="239" x2="1020" y2="171"/><line x1="959" y1="239" x2="1027" y2="171"/><line x1="966" y1="239" x2="1034" y2="171"/><line x1="973" y1="239" x2="1041" y2="171"/><line x1="980" y1="239" x2="1048" y2="171"/><line x1="987" y1="239" x2="1055" y2="171"/><line x1="994" y1="239" x2="1062" y2="171"/><line x1="1001" y1="239" x2="1069" y2="171"/><line x1="1008" y1="239" x2="1076" y2="171"/><line x1="1015" y1="239" x2="1083" y2="171"/><line x1="1022" y1="239" x2="1090" y2="171"/><line x1="1029" y1="239" x2="1097" y2="171"/><line x1="1036" y1="239" x2="1104" y2="171"/><line x1="1043" y1="239" x2="1111" y2="171"/><line x1="1050" y1="239" x2="1118" y2="171"/><line x1="1057" y1="239" x2="1125" y2="171"/><line x1="1064" y1="239" x2="1132" y2="171"/><line x1="1071" y1="239" x2="1139" y2="171"/><line x1="1078" y1="239" x2="1146" y2="171"/><line x1="1085" y1="239" x2="1153" y2="171"/><line x1="1092" y1="239" x2="1160" y2="171"/></g></g><path d="M580 376 H 660 V 315 H 700" stroke="#c2360c" stroke-width="1.8" fill="none"/><rect x="700" y="281" width="330" height="68" fill="#f7f3ea" stroke="#29221b" stroke-width="1.8" /><text x="724" y="309" font-family='ui-monospace, Menlo, Consolas, monospace' font-size="16" font-weight="600" letter-spacing="3" text-anchor="start" fill="#c2360c" fill-opacity="1">CC001</text><text x="724" y="333" font-family='ui-monospace, Menlo, Consolas, monospace' font-size="13" font-weight="500" letter-spacing="3" text-anchor="start" fill="#29221b" fill-opacity="0.6">BASH (*) ALLOWED</text><g clip-path="url(#hp-1006-281)"><defs><clipPath id="hp-1006-281"><rect x="1006" y="281" width="24" height="68"/></clipPath></defs><g stroke="#c2360c" stroke-opacity="0.45" stroke-width="1.4"><line x1="938" y1="349" x2="1006" y2="281"/><line x1="945" y1="349" x2="1013" y2="281"/><line x1="952" y1="349" x2="1020" y2="281"/><line x1="959" y1="349" x2="1027" y2="281"/><line x1="966" y1="349" x2="1034" y2="281"/><line x1="973" y1="349" x2="1041" y2="281"/><line x1="980" y1="349" x2="1048" y2="281"/><line x1="987" y1="349" x2="1055" y2="281"/><line x1="994" y1="349" x2="1062" y2="281"/><line x1="1001" y1="349" x2="1069" y2="281"/><line x1="1008" y1="349" x2="1076" y2="281"/><line x1="1015" y1="349" x2="1083" y2="281"/><line x1="1022" y1="349" x2="1090" y2="281"/><line x1="1029" y1="349" x2="1097" y2="281"/><line x1="1036" y1="349" x2="1104" y2="281"/><line x1="1043" y1="349" x2="1111" y2="281"/><line x1="1050" y1="349" x2="1118" y2="281"/><line x1="1057" y1="349" x2="1125" y2="281"/><line x1="1064" y1="349" x2="1132" y2="281"/><line x1="1071" y1="349" x2="1139" y2="281"/><line x1="1078" y1="349" x2="1146" y2="281"/><line x1="1085" y1="349" x2="1153" y2="281"/><line x1="1092" y1="349" x2="1160" y2="281"/></g></g><path d="M580 469 H 660 V 425 H 700" stroke="#c2360c" stroke-width="1.8" fill="none"/><rect x="700" y="391" width="330" height="68" fill="#f7f3ea" stroke="#29221b" stroke-width="1.8" /><text x="724" y="419" font-family='ui-monospace, Menlo, Consolas, monospace' font-size="16" font-weight="600" letter-spacing="3" text-anchor="start" fill="#c2360c" fill-opacity="1">SK001</text><text x="724" y="443" font-family='ui-monospace, Menlo, Consolas, monospace' font-size="13" font-weight="500" letter-spacing="3" text-anchor="start" fill="#29221b" fill-opacity="0.6">PROMPT INJECTION</text><g clip-path="url(#hp-1006-391)"><defs><clipPath id="hp-1006-391"><rect x="1006" y="391" width="24" height="68"/></clipPath></defs><g stroke="#c2360c" stroke-opacity="0.45" stroke-width="1.4"><line x1="938" y1="459" x2="1006" y2="391"/><line x1="945" y1="459" x2="1013" y2="391"/><line x1="952" y1="459" x2="1020" y2="391"/><line x1="959" y1="459" x2="1027" y2="391"/><line x1="966" y1="459" x2="1034" y2="391"/><line x1="973" y1="459" x2="1041" y2="391"/><line x1="980" y1="459" x2="1048" y2="391"/><line x1="987" y1="459" x2="1055" y2="391"/><line x1="994" y1="459" x2="1062" y2="391"/><line x1="1001" y1="459" x2="1069" y2="391"/><line x1="1008" y1="459" x2="1076" y2="391"/><line x1="1015" y1="459" x2="1083" y2="391"/><line x1="1022" y1="459" x2="1090" y2="391"/><line x1="1029" y1="459" x2="1097" y2="391"/><line x1="1036" y1="459" x2="1104" y2="391"/><line x1="1043" y1="459" x2="1111" y2="391"/><line x1="1050" y1="459" x2="1118" y2="391"/><line x1="1057" y1="459" x2="1125" y2="391"/><line x1="1064" y1="459" x2="1132" y2="391"/><line x1="1071" y1="459" x2="1139" y2="391"/><line x1="1078" y1="459" x2="1146" y2="391"/><line x1="1085" y1="459" x2="1153" y2="391"/><line x1="1092" y1="459" x2="1160" y2="391"/></g></g><text x="360" y="585" font-family='ui-monospace, Menlo, Consolas, monospace' font-size="13" font-weight="500" letter-spacing="3" text-anchor="middle" fill="#29221b" fill-opacity="0.6">3 FINDINGS · 0 FALSE POSITIVES</text>
  <!-- footer -->
  <line x1="60" y1="601" x2="1140" y2="601" stroke="#29221b" stroke-opacity="0.35" stroke-width="1"/>
  <text x="60" y="631" font-family='ui-monospace, Menlo, Consolas, monospace' font-size="14" font-weight="500" letter-spacing="2.4" text-anchor="start" fill="#29221b" fill-opacity="0.6">SECURITY AUDITOR FOR AI AGENT CONFIGURATIONS · FINDS THEM BEFORE THEY HURT YOU</text>
  <g fill="none" stroke="#29221b" stroke-opacity="0.7" stroke-width="1.56" transform="translate(1098 606) scale(0.8333333333333334)">
    <rect x="7.5" y="7.5" width="11" height="11" /><rect x="29.5" y="7.5" width="11" height="11" /><rect x="7.5" y="29.5" width="11" height="11" /><rect x="29.5" y="29.5" width="11" height="11" />
    <rect x="18.5" y="4.5" width="11" height="11" transform="rotate(45 24 10)"/><rect x="32.5" y="18.5" width="11" height="11" transform="rotate(45 38 24)"/><rect x="18.5" y="32.5" width="11" height="11" transform="rotate(45 24 38)"/><rect x="4.5" y="18.5" width="11" height="11" transform="rotate(45 10 24)"/>
  </g>
</svg>
