<svg xmlns="http://www.w3.org/2000/svg" width="1200" height="675" viewBox="0 0 1200 675">
  <defs>
    <linearGradient id="g" x1="0" y1="0" x2="1" y2="1">
      <stop offset="0" stop-color="#3b1d5e"/>
      <stop offset="1" stop-color="#7a2f5a"/>
    </linearGradient>
  </defs>
  <rect width="1200" height="675" fill="url(#g)"/>
  <g stroke="#ffffff" stroke-opacity="0.28" stroke-width="1.5">
    <!-- edges -->
    <path d="M250 200 L520 150 M250 200 L520 300 M250 200 L520 450 M250 470 L520 150 M250 470 L520 300 M250 470 L520 450"/>
    <path d="M520 150 L800 240 M520 150 L800 430 M520 300 L800 240 M520 300 L800 430 M520 450 L800 240 M520 450 L800 430"/>
    <path d="M800 240 L1000 335 M800 430 L1000 335"/>
  </g>
  <g>
    <circle cx="250" cy="200" r="20" fill="#ffd7a8"/>
    <circle cx="250" cy="470" r="20" fill="#ffd7a8"/>
    <circle cx="520" cy="150" r="20" fill="#ff9e6d"/>
    <circle cx="520" cy="300" r="20" fill="#ffb98a"/>
    <circle cx="520" cy="450" r="20" fill="#ff8f5a"/>
    <circle cx="800" cy="240" r="20" fill="#ffb98a"/>
    <circle cx="800" cy="430" r="20" fill="#ff9e6d"/>
    <circle cx="1000" cy="335" r="24" fill="#ffffff"/>
  </g>
  <text x="90" y="612" font-family="monospace" font-size="34" fill="#ffffff" fill-opacity="0.9">neural networks in virtual reality · master's thesis</text>
</svg>
