<svg xmlns="http://www.w3.org/2000/svg" width="1200" height="675" viewBox="0 0 1200 675">
  <rect width="1200" height="675" fill="#f7f3ea"/>
  <g stroke="#e2dac8" stroke-width="1"><line x1="60" y1="0" x2="60" y2="675"/><line x1="120" y1="0" x2="120" y2="675"/><line x1="180" y1="0" x2="180" y2="675"/><line x1="240" y1="0" x2="240" y2="675"/><line x1="300" y1="0" x2="300" y2="675"/><line x1="360" y1="0" x2="360" y2="675"/><line x1="420" y1="0" x2="420" y2="675"/><line x1="480" y1="0" x2="480" y2="675"/><line x1="540" y1="0" x2="540" y2="675"/><line x1="600" y1="0" x2="600" y2="675"/><line x1="660" y1="0" x2="660" y2="675"/><line x1="720" y1="0" x2="720" y2="675"/><line x1="780" y1="0" x2="780" y2="675"/><line x1="840" y1="0" x2="840" y2="675"/><line x1="900" y1="0" x2="900" y2="675"/><line x1="960" y1="0" x2="960" y2="675"/><line x1="1020" y1="0" x2="1020" y2="675"/><line x1="1080" y1="0" x2="1080" y2="675"/><line x1="1140" y1="0" x2="1140" y2="675"/><line x1="0" y1="15" x2="1200" y2="15"/><line x1="0" y1="75" x2="1200" y2="75"/><line x1="0" y1="135" x2="1200" y2="135"/><line x1="0" y1="195" x2="1200" y2="195"/><line x1="0" y1="255" x2="1200" y2="255"/><line x1="0" y1="315" x2="1200" y2="315"/><line x1="0" y1="375" x2="1200" y2="375"/><line x1="0" y1="435" x2="1200" y2="435"/><line x1="0" y1="495" x2="1200" y2="495"/><line x1="0" y1="555" x2="1200" y2="555"/><line x1="0" y1="615" x2="1200" y2="615"/></g>
  <g stroke="#29221b" stroke-opacity="0.65" stroke-width="2">
    <path d="M26 42 V26 H42" fill="none"/>
    <path d="M1158 26 H1174 V42" fill="none"/>
    <path d="M1174 633 V649 H1158" fill="none"/>
    <path d="M42 649 H26 V633" fill="none"/>
  </g>
  <!-- header band -->
  <text x="60" y="76" font-family='ui-monospace, Menlo, Consolas, monospace' font-size="20" font-weight="600" letter-spacing="3" text-anchor="start" fill="#c2360c" fill-opacity="1">NEURAL NETWORKS IN VR</text>
  <text x="1140" y="76" font-family='ui-monospace, Menlo, Consolas, monospace' font-size="15" font-weight="500" letter-spacing="3" text-anchor="end" fill="#29221b" fill-opacity="0.55">ONDREJ ULEHLA · 2026</text>
  <line x1="60" y1="94" x2="1140" y2="94" stroke="#29221b" stroke-opacity="0.6" stroke-width="1.6"/>
  <g clip-path="url(#hp-60-100)"><defs><clipPath id="hp-60-100"><rect x="60" y="100" width="150" height="8"/></clipPath></defs><g stroke="#29221b" stroke-opacity="0.5" stroke-width="1.4"><line x1="52" y1="108" x2="60" y2="100"/><line x1="59" y1="108" x2="67" y2="100"/><line x1="66" y1="108" x2="74" y2="100"/><line x1="73" y1="108" x2="81" y2="100"/><line x1="80" y1="108" x2="88" y2="100"/><line x1="87" y1="108" x2="95" y2="100"/><line x1="94" y1="108" x2="102" y2="100"/><line x1="101" y1="108" x2="109" y2="100"/><line x1="108" y1="108" x2="116" y2="100"/><line x1="115" y1="108" x2="123" y2="100"/><line x1="122" y1="108" x2="130" y2="100"/><line x1="129" y1="108" x2="137" y2="100"/><line x1="136" y1="108" x2="144" y2="100"/><line x1="143" y1="108" x2="151" y2="100"/><line x1="150" y1="108" x2="158" y2="100"/><line x1="157" y1="108" x2="165" y2="100"/><line x1="164" y1="108" x2="172" y2="100"/><line x1="171" y1="108" x2="179" y2="100"/><line x1="178" y1="108" x2="186" y2="100"/><line x1="185" y1="108" x2="193" y2="100"/><line x1="192" y1="108" x2="200" y2="100"/><line x1="199" y1="108" x2="207" y2="100"/><line x1="206" y1="108" x2="214" y2="100"/><line x1="213" y1="108" x2="221" y2="100"/></g></g>
  <!-- diagram -->
  <line x1="240" y1="267" x2="430" y2="205" stroke="#c2360c" stroke-opacity="0.8" stroke-width="2"/><line x1="240" y1="267" x2="430" y2="267" stroke="#29221b" stroke-opacity="0.16" stroke-width="1.2"/><line x1="240" y1="267" x2="430" y2="329" stroke="#c2360c" stroke-opacity="0.8" stroke-width="2"/><line x1="240" y1="267" x2="430" y2="391" stroke="#29221b" stroke-opacity="0.16" stroke-width="1.2"/><line x1="240" y1="267" x2="430" y2="453" stroke="#29221b" stroke-opacity="0.16" stroke-width="1.2"/><line x1="240" y1="267" x2="430" y2="515" stroke="#29221b" stroke-opacity="0.16" stroke-width="1.2"/><line x1="240" y1="329" x2="430" y2="205" stroke="#29221b" stroke-opacity="0.16" stroke-width="1.2"/><line x1="240" y1="329" x2="430" y2="267" stroke="#29221b" stroke-opacity="0.16" stroke-width="1.2"/><line x1="240" y1="329" x2="430" y2="329" stroke="#29221b" stroke-opacity="0.16" stroke-width="1.2"/><line x1="240" y1="329" x2="430" y2="391" stroke="#29221b" stroke-opacity="0.16" stroke-width="1.2"/><line x1="240" y1="329" x2="430" y2="453" stroke="#c2360c" stroke-opacity="0.8" stroke-width="2"/><line x1="240" y1="329" x2="430" y2="515" stroke="#29221b" stroke-opacity="0.16" stroke-width="1.2"/><line x1="240" y1="391" x2="430" y2="205" stroke="#29221b" stroke-opacity="0.16" stroke-width="1.2"/><line x1="240" y1="391" x2="430" y2="267" stroke="#c2360c" stroke-opacity="0.8" stroke-width="2"/><line x1="240" y1="391" x2="430" y2="329" stroke="#29221b" stroke-opacity="0.16" stroke-width="1.2"/><line x1="240" y1="391" x2="430" y2="391" stroke="#29221b" stroke-opacity="0.16" stroke-width="1.2"/><line x1="240" y1="391" x2="430" y2="453" stroke="#29221b" stroke-opacity="0.16" stroke-width="1.2"/><line x1="240" y1="391" x2="430" y2="515" stroke="#29221b" stroke-opacity="0.16" stroke-width="1.2"/><line x1="240" y1="453" x2="430" y2="205" stroke="#29221b" stroke-opacity="0.16" stroke-width="1.2"/><line x1="240" y1="453" x2="430" y2="267" stroke="#29221b" stroke-opacity="0.16" stroke-width="1.2"/><line x1="240" y1="453" x2="430" y2="329" stroke="#29221b" stroke-opacity="0.16" stroke-width="1.2"/><line x1="240" y1="453" x2="430" y2="391" stroke="#c2360c" stroke-opacity="0.8" stroke-width="2"/><line x1="240" y1="453" x2="430" y2="453" stroke="#29221b" stroke-opacity="0.16" stroke-width="1.2"/><line x1="240" y1="453" x2="430" y2="515" stroke="#c2360c" stroke-opacity="0.8" stroke-width="2"/><line x1="430" y1="205" x2="620" y2="205" stroke="#29221b" stroke-opacity="0.16" stroke-width="1.2"/><line x1="430" y1="205" x2="620" y2="267" stroke="#29221b" stroke-opacity="0.16" stroke-width="1.2"/><line x1="430" y1="205" x2="620" y2="329" stroke="#29221b" stroke-opacity="0.16" stroke-width="1.2"/><line x1="430" y1="205" x2="620" y2="391" stroke="#c2360c" stroke-opacity="0.8" stroke-width="2"/><line x1="430" y1="205" x2="620" y2="453" stroke="#29221b" stroke-opacity="0.16" stroke-width="1.2"/><line x1="430" y1="205" x2="620" y2="515" stroke="#c2360c" stroke-opacity="0.8" stroke-width="2"/><line x1="430" y1="267" x2="620" y2="205" stroke="#c2360c" stroke-opacity="0.8" stroke-width="2"/><line x1="430" y1="267" x2="620" y2="267" stroke="#29221b" stroke-opacity="0.16" stroke-width="1.2"/><line x1="430" y1="267" x2="620" y2="329" stroke="#29221b" stroke-opacity="0.16" stroke-width="1.2"/><line x1="430" y1="267" x2="620" y2="391" stroke="#29221b" stroke-opacity="0.16" stroke-width="1.2"/><line x1="430" y1="267" x2="620" y2="453" stroke="#29221b" stroke-opacity="0.16" stroke-width="1.2"/><line x1="430" y1="267" x2="620" y2="515" stroke="#29221b" stroke-opacity="0.16" stroke-width="1.2"/><line x1="430" y1="329" x2="620" y2="205" stroke="#29221b" stroke-opacity="0.16" stroke-width="1.2"/><line x1="430" y1="329" x2="620" y2="267" stroke="#29221b" stroke-opacity="0.16" stroke-width="1.2"/><line x1="430" y1="329" x2="620" y2="329" stroke="#c2360c" stroke-opacity="0.8" stroke-width="2"/><line x1="430" y1="329" x2="620" y2="391" stroke="#29221b" stroke-opacity="0.16" stroke-width="1.2"/><line x1="430" y1="329" x2="620" y2="453" stroke="#c2360c" stroke-opacity="0.8" stroke-width="2"/><line x1="430" y1="329" x2="620" y2="515" stroke="#29221b" stroke-opacity="0.16" stroke-width="1.2"/><line x1="430" y1="391" x2="620" y2="205" stroke="#29221b" stroke-opacity="0.16" stroke-width="1.2"/><line x1="430" y1="391" x2="620" y2="267" stroke="#29221b" stroke-opacity="0.16" stroke-width="1.2"/><line x1="430" y1="391" x2="620" y2="329" stroke="#29221b" stroke-opacity="0.16" stroke-width="1.2"/><line x1="430" y1="391" x2="620" y2="391" stroke="#29221b" stroke-opacity="0.16" stroke-width="1.2"/><line x1="430" y1="391" x2="620" y2="453" stroke="#29221b" stroke-opacity="0.16" stroke-width="1.2"/><line x1="430" y1="391" x2="620" y2="515" stroke="#29221b" stroke-opacity="0.16" stroke-width="1.2"/><line x1="430" y1="453" x2="620" y2="205" stroke="#29221b" stroke-opacity="0.16" stroke-width="1.2"/><line x1="430" y1="453" x2="620" y2="267" stroke="#c2360c" stroke-opacity="0.8" stroke-width="2"/><line x1="430" y1="453" x2="620" y2="329" stroke="#29221b" stroke-opacity="0.16" stroke-width="1.2"/><line x1="430" y1="453" x2="620" y2="391" stroke="#c2360c" stroke-opacity="0.8" stroke-width="2"/><line x1="430" y1="453" x2="620" y2="453" stroke="#29221b" stroke-opacity="0.16" stroke-width="1.2"/><line x1="430" y1="453" x2="620" y2="515" stroke="#29221b" stroke-opacity="0.16" stroke-width="1.2"/><line x1="430" y1="515" x2="620" y2="205" stroke="#29221b" stroke-opacity="0.16" stroke-width="1.2"/><line x1="430" y1="515" x2="620" y2="267" stroke="#29221b" stroke-opacity="0.16" stroke-width="1.2"/><line x1="430" y1="515" x2="620" y2="329" stroke="#29221b" stroke-opacity="0.16" stroke-width="1.2"/><line x1="430" y1="515" x2="620" y2="391" stroke="#29221b" stroke-opacity="0.16" stroke-width="1.2"/><line x1="430" y1="515" x2="620" y2="453" stroke="#29221b" stroke-opacity="0.16" stroke-width="1.2"/><line x1="430" y1="515" x2="620" y2="515" stroke="#c2360c" stroke-opacity="0.8" stroke-width="2"/><line x1="620" y1="205" x2="810" y2="298" stroke="#29221b" stroke-opacity="0.16" stroke-width="1.2"/><line x1="620" y1="205" x2="810" y2="360" stroke="#29221b" stroke-opacity="0.16" stroke-width="1.2"/><line x1="620" y1="205" x2="810" y2="422" stroke="#29221b" stroke-opacity="0.16" stroke-width="1.2"/><line x1="620" y1="267" x2="810" y2="298" stroke="#29221b" stroke-opacity="0.16" stroke-width="1.2"/><line x1="620" y1="267" x2="810" y2="360" stroke="#c2360c" stroke-opacity="0.8" stroke-width="2"/><line x1="620" y1="267" x2="810" y2="422" stroke="#29221b" stroke-opacity="0.16" stroke-width="1.2"/><line x1="620" y1="329" x2="810" y2="298" stroke="#29221b" stroke-opacity="0.16" stroke-width="1.2"/><line x1="620" y1="329" x2="810" y2="360" stroke="#29221b" stroke-opacity="0.16" stroke-width="1.2"/><line x1="620" y1="329" x2="810" y2="422" stroke="#29221b" stroke-opacity="0.16" stroke-width="1.2"/><line x1="620" y1="391" x2="810" y2="298" stroke="#c2360c" stroke-opacity="0.8" stroke-width="2"/><line x1="620" y1="391" x2="810" y2="360" stroke="#29221b" stroke-opacity="0.16" stroke-width="1.2"/><line x1="620" y1="391" x2="810" y2="422" stroke="#c2360c" stroke-opacity="0.8" stroke-width="2"/><line x1="620" y1="453" x2="810" y2="298" stroke="#29221b" stroke-opacity="0.16" stroke-width="1.2"/><line x1="620" y1="453" x2="810" y2="360" stroke="#29221b" stroke-opacity="0.16" stroke-width="1.2"/><line x1="620" y1="453" x2="810" y2="422" stroke="#29221b" stroke-opacity="0.16" stroke-width="1.2"/><line x1="620" y1="515" x2="810" y2="298" stroke="#29221b" stroke-opacity="0.16" stroke-width="1.2"/><line x1="620" y1="515" x2="810" y2="360" stroke="#c2360c" stroke-opacity="0.8" stroke-width="2"/><line x1="620" y1="515" x2="810" y2="422" stroke="#29221b" stroke-opacity="0.16" stroke-width="1.2"/><circle cx="240" cy="267" r="17" fill="#f7f3ea" stroke="#c2360c" stroke-width="3"/><circle cx="240" cy="267" r="7" fill="#c2360c"/><circle cx="240" cy="329" r="17" fill="#f7f3ea" stroke="#29221b" stroke-width="2"/><circle cx="240" cy="391" r="17" fill="#f7f3ea" stroke="#29221b" stroke-width="2"/><circle cx="240" cy="453" r="17" fill="#f7f3ea" stroke="#c2360c" stroke-width="3"/><circle cx="240" cy="453" r="7" fill="#c2360c"/><circle cx="430" cy="205" r="17" fill="#f7f3ea" stroke="#29221b" stroke-width="2"/><circle cx="430" cy="267" r="17" fill="#f7f3ea" stroke="#29221b" stroke-width="2"/><circle cx="430" cy="329" r="17" fill="#f7f3ea" stroke="#c2360c" stroke-width="3"/><circle cx="430" cy="329" r="7" fill="#c2360c"/><circle cx="430" cy="391" r="17" fill="#f7f3ea" stroke="#29221b" stroke-width="2"/><circle cx="430" cy="453" r="17" fill="#f7f3ea" stroke="#29221b" stroke-width="2"/><circle cx="430" cy="515" r="17" fill="#f7f3ea" stroke="#c2360c" stroke-width="3"/><circle cx="430" cy="515" r="7" fill="#c2360c"/><circle cx="620" cy="205" r="17" fill="#f7f3ea" stroke="#29221b" stroke-width="2"/><circle cx="620" cy="267" r="17" fill="#f7f3ea" stroke="#c2360c" stroke-width="3"/><circle cx="620" cy="267" r="7" fill="#c2360c"/><circle cx="620" cy="329" r="17" fill="#f7f3ea" stroke="#29221b" stroke-width="2"/><circle cx="620" cy="391" r="17" fill="#f7f3ea" stroke="#29221b" stroke-width="2"/><circle cx="620" cy="453" r="17" fill="#f7f3ea" stroke="#c2360c" stroke-width="3"/><circle cx="620" cy="453" r="7" fill="#c2360c"/><circle cx="620" cy="515" r="17" fill="#f7f3ea" stroke="#29221b" stroke-width="2"/><circle cx="810" cy="298" r="17" fill="#f7f3ea" stroke="#c2360c" stroke-width="3"/><circle cx="810" cy="298" r="7" fill="#c2360c"/><circle cx="810" cy="360" r="17" fill="#f7f3ea" stroke="#29221b" stroke-width="2"/><circle cx="810" cy="422" r="17" fill="#f7f3ea" stroke="#29221b" stroke-width="2"/><text x="240" y="572" font-family='ui-monospace, Menlo, Consolas, monospace' font-size="13" font-weight="500" letter-spacing="3" text-anchor="middle" fill="#29221b" fill-opacity="0.55">X · Y · X² · SIN πX</text><text x="810" y="572" font-family='ui-monospace, Menlo, Consolas, monospace' font-size="13" font-weight="500" letter-spacing="3" text-anchor="middle" fill="#29221b" fill-opacity="0.55">SOFTMAX · 3 CLASSES</text><rect x="930" y="210" width="150" height="150" fill="#f7f3ea" stroke="#29221b" stroke-width="2" /><rect x="932" y="236.5" width="24.5" height="24.5" fill="#c2360c" fill-opacity="0.7"/><rect x="932" y="261" width="24.5" height="24.5" fill="#c2360c" fill-opacity="0.7"/><rect x="932" y="285.5" width="24.5" height="24.5" fill="#c2360c" fill-opacity="0.7"/><rect x="932" y="310" width="24.5" height="24.5" fill="#c2360c" fill-opacity="0.7"/><rect x="932" y="334.5" width="24.5" height="24.5" fill="#c2360c" fill-opacity="0.7"/><rect x="956.5" y="212" width="24.5" height="24.5" fill="#c2360c" fill-opacity="0.7"/><rect x="956.5" y="236.5" width="24.5" height="24.5" fill="#c2360c" fill-opacity="0.7"/><rect x="956.5" y="261" width="24.5" height="24.5" fill="#c2360c" fill-opacity="0.7"/><rect x="956.5" y="285.5" width="24.5" height="24.5" fill="#c2360c" fill-opacity="0.7"/><rect x="981" y="212" width="24.5" height="24.5" fill="#c2360c" fill-opacity="0.7"/><rect x="981" y="236.5" width="24.5" height="24.5" fill="#c2360c" fill-opacity="0.7"/><rect x="1030" y="310" width="24.5" height="24.5" fill="#c2360c" fill-opacity="0.7"/><rect x="1030" y="334.5" width="24.5" height="24.5" fill="#c2360c" fill-opacity="0.7"/><rect x="1054.5" y="261" width="24.5" height="24.5" fill="#c2360c" fill-opacity="0.7"/><rect x="1054.5" y="285.5" width="24.5" height="24.5" fill="#c2360c" fill-opacity="0.7"/><rect x="1054.5" y="310" width="24.5" height="24.5" fill="#c2360c" fill-opacity="0.7"/><rect x="1054.5" y="334.5" width="24.5" height="24.5" fill="#c2360c" fill-opacity="0.7"/><text x="1005" y="392" font-family='ui-monospace, Menlo, Consolas, monospace' font-size="12" font-weight="500" letter-spacing="3" text-anchor="middle" fill="#29221b" fill-opacity="0.55">DECISION SURFACE</text>
  <!-- footer -->
  <line x1="60" y1="601" x2="1140" y2="601" stroke="#29221b" stroke-opacity="0.35" stroke-width="1"/>
  <text x="60" y="631" font-family='ui-monospace, Menlo, Consolas, monospace' font-size="14" font-weight="500" letter-spacing="2.4" text-anchor="start" fill="#29221b" fill-opacity="0.6">MASTER’S THESIS · CONFIGURE A NETWORK ON THE WEB, WALK THROUGH IT IN VR</text>
  <g fill="none" stroke="#29221b" stroke-opacity="0.7" stroke-width="5.625" transform="translate(1098 606) scale(0.26666666666666666)">
    <rect x="22" y="22" width="30" height="30" /><rect x="98" y="22" width="30" height="30" /><rect x="22" y="98" width="30" height="30" /><rect x="98" y="98" width="30" height="30" />
    <rect x="60" y="6" width="30" height="30" transform="rotate(45 75 21)"/><rect x="114" y="60" width="30" height="30" transform="rotate(45 129 75)"/><rect x="60" y="114" width="30" height="30" transform="rotate(45 75 129)"/><rect x="6" y="60" width="30" height="30" transform="rotate(45 21 75)"/>
    <polygon points="75,51 78.6,66.2 92,58 83.8,71.4 99,75 83.8,78.6 92,92 78.6,83.8 75,99 71.4,83.8 58,92 66.2,78.6 51,75 66.2,71.4 58,58 71.4,66.2"/>
    <path d="M75 68v14M68 75h14"/>
  </g>
</svg>
