<svg xmlns="http://www.w3.org/2000/svg" width="1200" height="675" viewBox="0 0 1200 675">
  <rect width="1200" height="675" fill="#f7f3ea"/>
  <g stroke="#e2dac8" stroke-width="1"><line x1="60" y1="0" x2="60" y2="675"/><line x1="120" y1="0" x2="120" y2="675"/><line x1="180" y1="0" x2="180" y2="675"/><line x1="240" y1="0" x2="240" y2="675"/><line x1="300" y1="0" x2="300" y2="675"/><line x1="360" y1="0" x2="360" y2="675"/><line x1="420" y1="0" x2="420" y2="675"/><line x1="480" y1="0" x2="480" y2="675"/><line x1="540" y1="0" x2="540" y2="675"/><line x1="600" y1="0" x2="600" y2="675"/><line x1="660" y1="0" x2="660" y2="675"/><line x1="720" y1="0" x2="720" y2="675"/><line x1="780" y1="0" x2="780" y2="675"/><line x1="840" y1="0" x2="840" y2="675"/><line x1="900" y1="0" x2="900" y2="675"/><line x1="960" y1="0" x2="960" y2="675"/><line x1="1020" y1="0" x2="1020" y2="675"/><line x1="1080" y1="0" x2="1080" y2="675"/><line x1="1140" y1="0" x2="1140" y2="675"/><line x1="0" y1="15" x2="1200" y2="15"/><line x1="0" y1="75" x2="1200" y2="75"/><line x1="0" y1="135" x2="1200" y2="135"/><line x1="0" y1="195" x2="1200" y2="195"/><line x1="0" y1="255" x2="1200" y2="255"/><line x1="0" y1="315" x2="1200" y2="315"/><line x1="0" y1="375" x2="1200" y2="375"/><line x1="0" y1="435" x2="1200" y2="435"/><line x1="0" y1="495" x2="1200" y2="495"/><line x1="0" y1="555" x2="1200" y2="555"/><line x1="0" y1="615" x2="1200" y2="615"/></g>
  <g stroke="#29221b" stroke-opacity="0.65" stroke-width="2">
    <path d="M26 42 V26 H42" fill="none"/>
    <path d="M1158 26 H1174 V42" fill="none"/>
    <path d="M1174 633 V649 H1158" fill="none"/>
    <path d="M42 649 H26 V633" fill="none"/>
  </g>
  <!-- header band -->
  <text x="60" y="76" font-family='ui-monospace, Menlo, Consolas, monospace' font-size="20" font-weight="600" letter-spacing="3" text-anchor="start" fill="#c2360c" fill-opacity="1">PLATE 01</text>
  <text x="208" y="76" font-family='ui-monospace, Menlo, Consolas, monospace' font-size="20" font-weight="600" letter-spacing="3" text-anchor="start" fill="#29221b" fill-opacity="1">README-CI</text>
  <text x="1140" y="76" font-family='ui-monospace, Menlo, Consolas, monospace' font-size="15" font-weight="500" letter-spacing="3" text-anchor="end" fill="#29221b" fill-opacity="0.55">ONDREJ ULEHLA · 2026</text>
  <line x1="60" y1="94" x2="1140" y2="94" stroke="#29221b" stroke-opacity="0.6" stroke-width="1.6"/>
  <g clip-path="url(#hp-60-100)"><defs><clipPath id="hp-60-100"><rect x="60" y="100" width="150" height="8"/></clipPath></defs><g stroke="#29221b" stroke-opacity="0.5" stroke-width="1.4"><line x1="52" y1="108" x2="60" y2="100"/><line x1="59" y1="108" x2="67" y2="100"/><line x1="66" y1="108" x2="74" y2="100"/><line x1="73" y1="108" x2="81" y2="100"/><line x1="80" y1="108" x2="88" y2="100"/><line x1="87" y1="108" x2="95" y2="100"/><line x1="94" y1="108" x2="102" y2="100"/><line x1="101" y1="108" x2="109" y2="100"/><line x1="108" y1="108" x2="116" y2="100"/><line x1="115" y1="108" x2="123" y2="100"/><line x1="122" y1="108" x2="130" y2="100"/><line x1="129" y1="108" x2="137" y2="100"/><line x1="136" y1="108" x2="144" y2="100"/><line x1="143" y1="108" x2="151" y2="100"/><line x1="150" y1="108" x2="158" y2="100"/><line x1="157" y1="108" x2="165" y2="100"/><line x1="164" y1="108" x2="172" y2="100"/><line x1="171" y1="108" x2="179" y2="100"/><line x1="178" y1="108" x2="186" y2="100"/><line x1="185" y1="108" x2="193" y2="100"/><line x1="192" y1="108" x2="200" y2="100"/><line x1="199" y1="108" x2="207" y2="100"/><line x1="206" y1="108" x2="214" y2="100"/><line x1="213" y1="108" x2="221" y2="100"/></g></g>
  <!-- diagram -->
  <rect x="140" y="150" width="470" height="400" fill="#f7f3ea" stroke="#29221b" stroke-width="2.2" /><text x="170" y="196" font-family='ui-monospace, Menlo, Consolas, monospace' font-size="17" font-weight="600" letter-spacing="3" text-anchor="start" fill="#29221b" fill-opacity="1"># README.MD</text><line x1="170" y1="216" x2="480" y2="216" stroke="#29221b" stroke-width="1.6" fill="none" stroke-opacity="0.4"/><line x1="170" y1="236" x2="420" y2="236" stroke="#29221b" stroke-width="1.6" fill="none" stroke-opacity="0.4"/><rect x="170" y="262" width="410" height="62" fill="#f7f3ea" stroke="#29221b" stroke-width="1.6" /><text x="186" y="287" font-family='ui-monospace, Menlo, Consolas, monospace' font-size="13" font-weight="500" letter-spacing="2" text-anchor="start" fill="#29221b" fill-opacity="0.55">```BASH</text><line x1="186" y1="304" x2="360" y2="304" stroke="#c2360c" stroke-width="2.2" fill="none"/><line x1="580" y1="293" x2="700" y2="293" stroke="#29221b" stroke-width="1.6" fill="none" stroke-dasharray="2 6"/><rect x="170" y="352" width="410" height="62" fill="#f7f3ea" stroke="#29221b" stroke-width="1.6" /><text x="186" y="377" font-family='ui-monospace, Menlo, Consolas, monospace' font-size="13" font-weight="500" letter-spacing="2" text-anchor="start" fill="#29221b" fill-opacity="0.55">```BASH</text><line x1="186" y1="394" x2="360" y2="394" stroke="#c2360c" stroke-width="2.2" fill="none"/><line x1="580" y1="383" x2="700" y2="383" stroke="#29221b" stroke-width="1.6" fill="none" stroke-dasharray="2 6"/><rect x="170" y="442" width="410" height="62" fill="#f7f3ea" stroke="#29221b" stroke-width="1.6" /><text x="186" y="467" font-family='ui-monospace, Menlo, Consolas, monospace' font-size="13" font-weight="500" letter-spacing="2" text-anchor="start" fill="#29221b" fill-opacity="0.55">```BASH</text><line x1="186" y1="484" x2="430" y2="484" stroke="#c2360c" stroke-width="2.2" fill="none"/><line x1="580" y1="473" x2="700" y2="473" stroke="#29221b" stroke-width="1.6" fill="none" stroke-dasharray="2 6"/><line x1="700" y1="230" x2="700" y2="530" stroke="#29221b" stroke-width="2.2" fill="none"/><rect x="674" y="267" width="52" height="52" fill="#f7f3ea" stroke="#29221b" stroke-width="2.2" /><path d="M688 293 l9 10 l17 -20" stroke="#29221b" stroke-width="2.2" fill="none"/><rect x="674" y="357" width="52" height="52" fill="#f7f3ea" stroke="#29221b" stroke-width="2.2" /><path d="M688 383 l9 10 l17 -20" stroke="#29221b" stroke-width="2.2" fill="none"/><rect x="674" y="447" width="52" height="52" fill="#f7f3ea" stroke="#c2360c" stroke-width="2.2" /><path d="M690 463 l20 20 M710 463 l-20 20" stroke="#c2360c" stroke-width="2.2" fill="none"/><text x="760" y="298" font-family='ui-monospace, Menlo, Consolas, monospace' font-size="15" font-weight="500" letter-spacing="3" text-anchor="start" fill="#29221b" fill-opacity="0.6">PASS</text><text x="760" y="388" font-family='ui-monospace, Menlo, Consolas, monospace' font-size="15" font-weight="500" letter-spacing="3" text-anchor="start" fill="#29221b" fill-opacity="0.6">PASS</text><text x="760" y="478" font-family='ui-monospace, Menlo, Consolas, monospace' font-size="15" font-weight="600" letter-spacing="3" text-anchor="start" fill="#c2360c" fill-opacity="1">EXIT 1 · LINE 47</text><line x1="880" y1="505" x2="596" y2="473" stroke="#c2360c" stroke-width="2" stroke-dasharray="7 6"/>
  <path d="M596 473 L606.4830357118716 469.66743908328374 M596 473 L605.4786051981578 478.58175989249423" stroke="#c2360c" stroke-width="2" fill="none"/><text x="860" y="545" font-family='ui-monospace, Menlo, Consolas, monospace' font-size="13" font-weight="500" letter-spacing="3" text-anchor="start" fill="#29221b" fill-opacity="0.55">ANNOTATED IN THE PR</text>
  <!-- footer -->
  <line x1="60" y1="601" x2="1140" y2="601" stroke="#29221b" stroke-opacity="0.35" stroke-width="1"/>
  <text x="60" y="631" font-family='ui-monospace, Menlo, Consolas, monospace' font-size="14" font-weight="500" letter-spacing="2.4" text-anchor="start" fill="#29221b" fill-opacity="0.6">RUN THE CODE BLOCKS IN YOUR README · FAIL CI WHEN THE QUICKSTART BREAKS</text>
  <g fill="none" stroke="#29221b" stroke-opacity="0.7" stroke-width="1.56" transform="translate(1098 606) scale(0.8333333333333334)">
    <rect x="7.5" y="7.5" width="11" height="11" /><rect x="29.5" y="7.5" width="11" height="11" /><rect x="7.5" y="29.5" width="11" height="11" /><rect x="29.5" y="29.5" width="11" height="11" />
    <rect x="18.5" y="4.5" width="11" height="11" transform="rotate(45 24 10)"/><rect x="32.5" y="18.5" width="11" height="11" transform="rotate(45 38 24)"/><rect x="18.5" y="32.5" width="11" height="11" transform="rotate(45 24 38)"/><rect x="4.5" y="18.5" width="11" height="11" transform="rotate(45 10 24)"/>
  </g>
</svg>
