<svg xmlns="http://www.w3.org/2000/svg" width="1200" height="675" viewBox="0 0 1200 675">
  <rect width="1200" height="675" fill="#f7f3ea"/>
  <g stroke="#e2dac8" stroke-width="1"><line x1="60" y1="0" x2="60" y2="675"/><line x1="120" y1="0" x2="120" y2="675"/><line x1="180" y1="0" x2="180" y2="675"/><line x1="240" y1="0" x2="240" y2="675"/><line x1="300" y1="0" x2="300" y2="675"/><line x1="360" y1="0" x2="360" y2="675"/><line x1="420" y1="0" x2="420" y2="675"/><line x1="480" y1="0" x2="480" y2="675"/><line x1="540" y1="0" x2="540" y2="675"/><line x1="600" y1="0" x2="600" y2="675"/><line x1="660" y1="0" x2="660" y2="675"/><line x1="720" y1="0" x2="720" y2="675"/><line x1="780" y1="0" x2="780" y2="675"/><line x1="840" y1="0" x2="840" y2="675"/><line x1="900" y1="0" x2="900" y2="675"/><line x1="960" y1="0" x2="960" y2="675"/><line x1="1020" y1="0" x2="1020" y2="675"/><line x1="1080" y1="0" x2="1080" y2="675"/><line x1="1140" y1="0" x2="1140" y2="675"/><line x1="0" y1="15" x2="1200" y2="15"/><line x1="0" y1="75" x2="1200" y2="75"/><line x1="0" y1="135" x2="1200" y2="135"/><line x1="0" y1="195" x2="1200" y2="195"/><line x1="0" y1="255" x2="1200" y2="255"/><line x1="0" y1="315" x2="1200" y2="315"/><line x1="0" y1="375" x2="1200" y2="375"/><line x1="0" y1="435" x2="1200" y2="435"/><line x1="0" y1="495" x2="1200" y2="495"/><line x1="0" y1="555" x2="1200" y2="555"/><line x1="0" y1="615" x2="1200" y2="615"/></g>
  <g stroke="#29221b" stroke-opacity="0.65" stroke-width="2">
    <path d="M26 42 V26 H42" fill="none"/>
    <path d="M1158 26 H1174 V42" fill="none"/>
    <path d="M1174 633 V649 H1158" fill="none"/>
    <path d="M42 649 H26 V633" fill="none"/>
  </g>
  <!-- header band -->
  <text x="60" y="76" font-family='ui-monospace, Menlo, Consolas, monospace' font-size="20" font-weight="600" letter-spacing="3" text-anchor="start" fill="#c2360c" fill-opacity="1">PLATE 08</text>
  <text x="208" y="76" font-family='ui-monospace, Menlo, Consolas, monospace' font-size="20" font-weight="600" letter-spacing="3" text-anchor="start" fill="#29221b" fill-opacity="1">TRADE-UP PROFIT CALCULATOR</text>
  <text x="1140" y="76" font-family='ui-monospace, Menlo, Consolas, monospace' font-size="15" font-weight="500" letter-spacing="3" text-anchor="end" fill="#29221b" fill-opacity="0.55">ONDREJ ULEHLA · 2026</text>
  <line x1="60" y1="94" x2="1140" y2="94" stroke="#29221b" stroke-opacity="0.6" stroke-width="1.6"/>
  <g clip-path="url(#hp-60-100)"><defs><clipPath id="hp-60-100"><rect x="60" y="100" width="150" height="8"/></clipPath></defs><g stroke="#29221b" stroke-opacity="0.5" stroke-width="1.4"><line x1="52" y1="108" x2="60" y2="100"/><line x1="59" y1="108" x2="67" y2="100"/><line x1="66" y1="108" x2="74" y2="100"/><line x1="73" y1="108" x2="81" y2="100"/><line x1="80" y1="108" x2="88" y2="100"/><line x1="87" y1="108" x2="95" y2="100"/><line x1="94" y1="108" x2="102" y2="100"/><line x1="101" y1="108" x2="109" y2="100"/><line x1="108" y1="108" x2="116" y2="100"/><line x1="115" y1="108" x2="123" y2="100"/><line x1="122" y1="108" x2="130" y2="100"/><line x1="129" y1="108" x2="137" y2="100"/><line x1="136" y1="108" x2="144" y2="100"/><line x1="143" y1="108" x2="151" y2="100"/><line x1="150" y1="108" x2="158" y2="100"/><line x1="157" y1="108" x2="165" y2="100"/><line x1="164" y1="108" x2="172" y2="100"/><line x1="171" y1="108" x2="179" y2="100"/><line x1="178" y1="108" x2="186" y2="100"/><line x1="185" y1="108" x2="193" y2="100"/><line x1="192" y1="108" x2="200" y2="100"/><line x1="199" y1="108" x2="207" y2="100"/><line x1="206" y1="108" x2="214" y2="100"/><line x1="213" y1="108" x2="221" y2="100"/></g></g>
  <!-- diagram -->
  <line x1="170" y1="540" x2="930" y2="540" stroke="#29221b" stroke-width="2.2" fill="none"/><line x1="170" y1="540" x2="170" y2="210" stroke="#29221b" stroke-width="2.2" fill="none"/><text x="152" y="214" font-family='ui-monospace, Menlo, Consolas, monospace' font-size="13" font-weight="500" letter-spacing="3" text-anchor="end" fill="#29221b" fill-opacity="0.6">EV</text><text x="930" y="568" font-family='ui-monospace, Menlo, Consolas, monospace' font-size="13" font-weight="500" letter-spacing="3" text-anchor="end" fill="#29221b" fill-opacity="0.6">CONTRACT</text><line x1="170" y1="390" x2="930" y2="390" stroke="#29221b" stroke-width="1.6" fill="none" stroke-dasharray="7 7" stroke-opacity="0.5"/><text x="938" y="395" font-family='ui-monospace, Menlo, Consolas, monospace' font-size="13" font-weight="500" letter-spacing="3" text-anchor="start" fill="#29221b" fill-opacity="0.55">±0</text><rect x="200" y="500" width="34" height="40" fill="#f7f3ea" fill-opacity="1" stroke="#29221b" stroke-width="1.8"/><rect x="260" y="455" width="34" height="85" fill="#f7f3ea" fill-opacity="1" stroke="#29221b" stroke-width="1.8"/><rect x="320" y="410" width="34" height="130" fill="#f7f3ea" fill-opacity="1" stroke="#29221b" stroke-width="1.8"/><rect x="380" y="350" width="34" height="190" fill="#c2360c" fill-opacity="0.85" stroke="#29221b" stroke-width="1.8"/><rect x="440" y="390" width="34" height="150" fill="#f7f3ea" fill-opacity="1" stroke="#29221b" stroke-width="1.8"/><rect x="500" y="430" width="34" height="110" fill="#f7f3ea" fill-opacity="1" stroke="#29221b" stroke-width="1.8"/><rect x="560" y="470" width="34" height="70" fill="#f7f3ea" fill-opacity="1" stroke="#29221b" stroke-width="1.8"/><rect x="620" y="495" width="34" height="45" fill="#f7f3ea" fill-opacity="1" stroke="#29221b" stroke-width="1.8"/><rect x="680" y="420" width="34" height="120" fill="#f7f3ea" fill-opacity="1" stroke="#29221b" stroke-width="1.8"/><rect x="740" y="330" width="34" height="210" fill="#c2360c" fill-opacity="0.85" stroke="#29221b" stroke-width="1.8"/><rect x="800" y="375" width="34" height="165" fill="#c2360c" fill-opacity="0.85" stroke="#29221b" stroke-width="1.8"/><rect x="860" y="445" width="34" height="95" fill="#f7f3ea" fill-opacity="1" stroke="#29221b" stroke-width="1.8"/><polyline points="217,448 277,412 337,376 397,328 457,360 517,392 577,424 637,444 697,384 757,312 817,348 877,404" stroke="#c2360c" stroke-width="3" fill="none"/><rect x="750" y="305" width="14" height="14" fill="#c2360c" transform="rotate(45 757 312)"/><text x="757" y="290" font-family='ui-monospace, Menlo, Consolas, monospace' font-size="15" font-weight="600" letter-spacing="3" text-anchor="middle" fill="#c2360c" fill-opacity="1">+38 %</text>
  <!-- footer -->
  <line x1="60" y1="601" x2="1140" y2="601" stroke="#29221b" stroke-opacity="0.35" stroke-width="1"/>
  <text x="60" y="631" font-family='ui-monospace, Menlo, Consolas, monospace' font-size="14" font-weight="500" letter-spacing="2.4" text-anchor="start" fill="#29221b" fill-opacity="0.6">MARKET DATA INGESTION · PROBABILITY MODEL · EXPECTED VALUE PER CONTRACT</text>
  <g fill="none" stroke="#29221b" stroke-opacity="0.7" stroke-width="1.56" transform="translate(1098 606) scale(0.8333333333333334)">
    <rect x="7.5" y="7.5" width="11" height="11" /><rect x="29.5" y="7.5" width="11" height="11" /><rect x="7.5" y="29.5" width="11" height="11" /><rect x="29.5" y="29.5" width="11" height="11" />
    <rect x="18.5" y="4.5" width="11" height="11" transform="rotate(45 24 10)"/><rect x="32.5" y="18.5" width="11" height="11" transform="rotate(45 38 24)"/><rect x="18.5" y="32.5" width="11" height="11" transform="rotate(45 24 38)"/><rect x="4.5" y="18.5" width="11" height="11" transform="rotate(45 10 24)"/>
  </g>
</svg>
